<?xml version="1.0" encoding="utf-8"?>
<!-- Generator: Adobe Illustrator 19.1.0, SVG Export Plug-In . SVG Version: 6.00 Build 0)  -->
<svg version="1.1" id="Layer_1" xmlns="http://www.w3.org/2000/svg" xmlns:xlink="http://www.w3.org/1999/xlink" x="0px" y="0px"
	 viewBox="-323 125.2 311.8 311.8" style="enable-background:new -323 125.2 311.8 311.8;" xml:space="preserve">
<style type="text/css">
	.st0{opacity:0.6;}
</style>
<g id="accomodation" class="st0">
	<path d="M-167.1,125.2c-86.1,0-155.9,69.8-155.9,155.9S-253.2,437-167.1,437s155.9-69.8,155.9-155.9S-81,125.2-167.1,125.2z
		 M-167.1,427.9c-81,0-146.7-65.7-146.7-146.7s65.7-146.7,146.7-146.7s146.7,65.7,146.7,146.7C-20.3,362.2-86,427.9-167.1,427.9z"/>
	<g>
		<path d="M-69.2,262.5l-95.5-77.5c-1.5-2.2-3.6-2.2-5.1-1l-95.4,78.9l0,0c-0.7,0.6-1.1,1.5-1.1,2.5v1.8c0,1.8,1.5,3.3,3.3,3.3h26.7
			v105.8c0,1.6,1.5,2.8,3.4,2.8h131.4c1.9,0,3.4-1.3,3.4-2.8V270.5h27.3c1.6,0,2.8-1.3,2.8-2.8v-2.8
			C-67.9,263.8-68.4,263-69.2,262.5z M-126.5,334.6l-11.7,7.7c0.8,1.7,0.3,3.7-1.3,4.8c-1.7,1.1-4,0.6-5.1-1.1l-26.5-40.4
			c-10.1,4.5-22.3,1.2-28.6-8.4c-7-10.6-4-24.9,6.6-31.8c10.6-6.9,24.9-4,31.8,6.6c6.3,9.6,4.5,22.1-3.7,29.6l15.2,23.2l11.7-7.7
			c1.8-1.2,4.3-0.7,5.5,1.1l7.1,10.9C-124.1,330.9-124.7,333.4-126.5,334.6z"/>
		<circle cx="-180.5" cy="284.5" r="13.5"/>
	</g>
</g>
</svg>
