<?xml version="1.0" encoding="utf-8"?>
<!-- Generator: Adobe Illustrator 19.1.0, SVG Export Plug-In . SVG Version: 6.00 Build 0)  -->
<svg version="1.1" id="Layer_1" xmlns="http://www.w3.org/2000/svg" xmlns:xlink="http://www.w3.org/1999/xlink" x="0px" y="0px"
	 viewBox="-323 125.2 311.8 311.8" style="enable-background:new -323 125.2 311.8 311.8;" xml:space="preserve">
<style type="text/css">
	.st0{opacity:0.6;}
</style>
<g id="art" class="st0">
	<path d="M-167.1,125.2c-86.1,0-155.9,69.8-155.9,155.9S-253.2,437-167.1,437s155.9-69.8,155.9-155.9S-81,125.2-167.1,125.2z
		 M-167.1,427.9c-81,0-146.7-65.7-146.7-146.7s65.7-146.7,146.7-146.7s146.7,65.7,146.7,146.7C-20.3,362.2-86,427.9-167.1,427.9z"/>
	<path d="M-193.2,169c-5.3,3.6,0.4,16.2,2.4,21.5c2.3,6.1-2.2,12.6-8.4,12.5c-2.6,0-11.8-3.2-13.7-3.3c-8.7-0.7-17.6,21.2,3,23.6
		c8.3,1,15.3,0.1,20.7-1.2c3.2-0.8,5.9,2.5,4.7,5.7c-0.8,2.2-4,18.4-3.5,20.7c1.8,8.6,17.8,6.6,22.6,0.2c2.4-3.2,0.5-17,2.9-21.2
		c2.4-4.3,8.9-3.6,10,1.3c0.1,0.4,0.1,0.8,0.1,1.1c-1.1,11,34.1,10,29.3-7.6s-22.2-16.1-23.8-22.9c-0.9-4.1-0.1-6.4,7.1-16
		c4.7-6.4,4.5-15.1-2.5-20.7c-6.9-5.5-24.2,1.7-23.3,14.8c0,0.1,0,0.2,0,0.2c0.1,2.5-2.9,3.7-4.5,1.8c-0.6-0.8-1.4-1.6-2.4-2.5
		C-179.4,170.7-184.2,162.8-193.2,169z"/>
	<path d="M-212.1,184.4c4.5,3.4-0.4,6.4-6.9,4.9c-8-1.8-18.4,5-18.4-4.9s7.6-8.3,12.7-8.3C-221.9,176-218.6,179.5-212.1,184.4z"/>
	<path d="M-115.1,198.4c-4.6-0.4-7.8,1.9-7.5-2.8c0.5-6.7,10.9-15.1,17.2-7.7c6.3,7.4,1.1,9.8-1.7,12.2
		C-108.6,201.4-108.4,198.9-115.1,198.4z"/>
	<path d="M-161.8,158c-3.9,4.3-6.4,9.5-8.5,4c-3.1-7.9-3.8-18,4.9-20.3c9.9-2.6,15.1,3,14.1,8.5C-151.9,153.3-156.1,151.8-161.8,158
		z"/>
	<path d="M-242.4,235.3c-4.5,4.3-4.9,7.3-3.9,10c-0.2,0.1-0.4,0.3-0.6,0.4c-1.9,1.4-4.6,3.5-7.7,6.1c-3.1,2.6-6.5,5.8-10.1,9.3
		c-0.9,0.9-1.8,1.8-2.7,2.7c-0.9,0.9-1.8,1.9-2.7,2.8c-1.8,1.9-3.6,3.9-5.4,5.9s-3.5,4-5.2,6c-0.8,1-1.7,2-2.5,3c-0.8,1-1.6,2-2.4,3
		c-3.1,4-5.8,7.8-8,11.1c-2.2,3.4-4,6.3-5.1,8.4c-0.6,1-1,1.9-1.3,2.5s-0.4,0.9-0.4,0.9s0.3-0.2,0.8-0.5c0.5-0.4,1.3-0.9,2.3-1.6
		c1.9-1.4,4.6-3.5,7.7-6.1s6.5-5.8,10.1-9.3c0.9-0.9,1.8-1.8,2.7-2.7c0.9-0.9,1.8-1.9,2.7-2.8c1.8-1.9,3.6-3.9,5.4-5.9
		c1.8-2,3.5-4,5.2-6c0.8-1,1.7-2,2.5-3s1.6-2,2.4-3c3.1-4,5.8-7.8,8-11.1c2.2-3.4,4-6.3,5.1-8.4c0,0,0,0,0-0.1
		c0.2,0.3,0.3,0.5,0.5,0.8c2.2,3.3,5.1,2.5,10.9-3.2c5.8-5.6,10.2-17.2,10.2-17.2S-236.6,229.6-242.4,235.3z"/>
	<path d="M-98.6,218.3c2.5,2.8,6.5,3.6,10.4,2.6c0,0.1-0.1,0.1-0.1,0.2c-1.1,1.9-2.8,4.6-4.8,7.9c0,0.1-0.1,0.1-0.1,0.2
		c-0.7,0.3-1.4,0.6-2.1,1c-2,0.9-4,2-6.1,3.1c-1,0.6-2.1,1.2-3.1,1.8c-0.5,0.3-1.1,0.6-1.6,0.9c-0.5,0.3-1.1,0.7-1.6,1
		c-2.1,1.3-4.3,2.7-6.4,4.2c-2.1,1.5-4.2,3-6.2,4.6c-0.5,0.4-1,0.8-1.5,1.2s-1,0.8-1.5,1.2c-1,0.8-2,1.6-2.9,2.4
		c-1.9,1.6-3.7,3.3-5.4,4.8c-1.7,1.6-3.3,3.2-4.7,4.7s-2.7,2.9-3.8,4.3c-1.1,1.3-2.1,2.5-2.9,3.5c-0.8,1-1.4,1.9-1.8,2.4
		c-0.2,0.3-0.4,0.5-0.5,0.7c-0.1,0.2-0.2,0.2-0.2,0.2l0.3,0.8c0,0,1.1-0.7,2.9-2c1.9-1.3,4.5-3,7.7-5.2s6.9-4.7,10.9-7.5
		c4-2.8,8.2-5.7,12.5-8.6c3.6-2.5,7.2-5.1,10.7-7.5c-2.2,3.8-4.6,7.8-6.9,11.8c-2.5,4.4-5.1,8.8-7.4,12.9c-2.4,4.1-4.5,8-6.4,11.3
		c-1.9,3.3-3.4,6.1-4.4,8c-1.1,1.9-1.7,3-1.7,3l0.8,0.2c0,0,0.1-0.1,0.2-0.2c0.1-0.1,0.4-0.3,0.6-0.5c0.5-0.5,1.3-1.1,2.3-2
		c1-0.9,2.1-1.9,3.3-3.2c1.2-1.2,2.5-2.6,3.9-4.2c1.4-1.5,2.8-3.2,4.3-5c1.4-1.8,2.9-3.7,4.4-5.7c0.7-1,1.4-2,2.2-3
		c0.4-0.5,0.7-1,1.1-1.6c0.4-0.5,0.7-1.1,1-1.6c1.4-2.1,2.7-4.3,4-6.5c1.3-2.2,2.5-4.4,3.6-6.6c0.3-0.5,0.6-1.1,0.8-1.6
		c0.3-0.5,0.5-1.1,0.8-1.6c0.5-1.1,1-2.1,1.5-3.2c0.9-2.1,1.8-4.2,2.5-6.1c0.3-0.9,0.6-1.8,0.9-2.6c0.4-0.3,0.8-0.6,1.2-0.8
		c3.1-2.2,5.7-4.1,7.5-5.4c0,2.3,0.8,4.5,2.4,6.3c4,4.4,11.5,4,16.9-0.9c5.4-4.9,6.5-12.3,2.5-16.7s-11.5-4-16.9,0.9
		c-2.5,2.3-4.1,5.2-4.6,8c-0.3,0.1-0.6,0.1-1,0.2c-1.1,0.3-2.4,0.7-3.8,1.1c-0.7,0.2-1.4,0.5-2.2,0.8c0.1-0.4,0.2-0.9,0.3-1.3
		c0.3-1.4,0.6-2.7,0.7-3.8c0.1-0.6,0.2-1.1,0.2-1.5c1.4-0.6,2.8-1.5,4.1-2.7c5.3-4.8,6.5-12.3,2.5-16.7c-4-4.4-11.5-4-16.9,0.9
		C-101.5,206.4-102.6,213.9-98.6,218.3z M-73.8,218.3c4.1-3.7,9.9-4,13-0.7c3,3.4,2.2,9.1-1.9,12.8c-4.1,3.7-9.9,4-13,0.7
		c-1.5-1.7-2.1-4-1.7-6.3c0.1,0,0.1-0.1,0.1-0.1l-0.1-0.2C-77,222.4-75.8,220.1-73.8,218.3z M-89,229.3c0.8,0.9,0.6,2.4-0.5,3.4
		s-2.6,1.1-3.4,0.2s-0.6-2.4,0.5-3.4C-91.3,228.5-89.8,228.4-89,229.3z M-81.5,202.8c3,3.4,2.2,9.1-1.9,12.8c-4.1,3.7-9.9,4-13,0.7
		c-3-3.4-2.2-9.1,1.9-12.8C-90.3,199.7-84.5,199.4-81.5,202.8z"/>
	<polygon points="-49.3,268.2 -50.9,271.2 -52.4,270.4 -50.8,267.4 -51.6,267 -53.2,269.9 -54.3,269.4 -52.8,266.4 -53.6,266 
		-55.1,268.9 -56.3,268.3 -54.8,265.3 -55.6,264.9 -57.1,267.9 -58.3,267.3 -56.8,264.3 -57.6,263.9 -59.1,266.8 -60.4,266.2 
		-58.8,263.2 -59.6,262.8 -61.2,265.8 -62.6,265 -61.1,262.1 -61.8,261.6 -63.4,264.6 -64.6,264 -63.1,261 -63.9,260.6 -65.4,263.6 
		-66.6,262.9 -65.1,260 -65.9,259.5 -67.4,262.5 -68.7,261.9 -67.1,258.9 -67.9,258.5 -69.5,261.4 -70.6,260.8 -69.1,257.9 
		-69.9,257.4 -71.4,260.4 -72.6,259.8 -71.1,256.8 -71.9,256.4 -73.4,259.4 -74.6,258.7 -73.1,255.8 -73.9,255.3 -75.4,258.3 
		-76.7,257.7 -75.1,254.7 -75.9,254.3 -77.5,257.2 -77.5,257.2 -86,273.5 -86,273.5 -88,277.3 -87.2,277.7 -85.2,273.9 -83.9,274.6 
		-85.9,278.4 -85.2,278.8 -83.2,275 -81.9,275.6 -83.9,279.4 -83.1,279.9 -81.1,276 -79.9,276.7 -81.9,280.5 -81.1,280.9 
		-79.1,277.1 -78,277.7 -80,281.5 -79.2,281.9 -77.2,278.1 -75.9,278.8 -77.9,282.6 -77.1,283 -75.1,279.2 -73.9,279.8 -75.9,283.6 
		-75.1,284.1 -73.1,280.2 -71.9,280.9 -73.9,284.7 -73.1,285.1 -71.1,281.3 -69.7,282 -71.7,285.9 -70.9,286.3 -68.9,282.4 
		-67.6,283.1 -69.6,286.9 -68.8,287.3 -66.8,283.5 -65.6,284.1 -67.6,288 -66.8,288.4 -64.8,284.6 -63.6,285.2 -65.6,289 
		-64.8,289.4 -62.8,285.6 -61.7,286.2 -63.7,290 -62.9,290.4 -60.9,286.6 -59.4,287.4 -61.4,291.2 -60.6,291.7 -58.6,287.8 
		-50.1,271.6 -48.5,268.6 	"/>
	<path d="M-179.8,355.8"/>
	<path d="M-179.8,324.6"/>
	<g>
		<ellipse cx="-169.2" cy="348.7" rx="26.4" ry="26.3"/>
		<path d="M-128.8,294.1h-4.3c-3.5-7.6-11.2-13-20.2-13H-203c-9,0-16.7,5.4-20.2,13h-12.5c-14.5,0-26.4,11.8-26.4,26.3v50.5
			c0,14.4,11.9,26.3,26.4,26.3h107c14.5,0,26.4-11.8,26.4-26.3v-50.5C-102.4,305.9-114.2,294.1-128.8,294.1z M-223.8,319.3H-243
			v-9.5h18.8c0.1,0.3,0.2,0.6,0.4,1C-223.8,310.8-223.8,319.3-223.8,319.3z M-169.2,382.8c-19.9,0-36.1-15.3-36.1-34.1
			s16.2-34.1,36.1-34.1s36.1,15.3,36.1,34.1S-149.3,382.8-169.2,382.8z"/>
	</g>
</g>
</svg>
