<?xml version="1.0" encoding="utf-8"?>
<!-- Generator: Adobe Illustrator 19.1.0, SVG Export Plug-In . SVG Version: 6.00 Build 0)  -->
<svg version="1.1" id="Layer_1" opacity="0.6" xmlns="http://www.w3.org/2000/svg" xmlns:xlink="http://www.w3.org/1999/xlink"
	 x="0px" y="0px" viewBox="-343 345.2 311.8 311.8" style="enable-background:new -343 345.2 311.8 311.8;" xml:space="preserve">
<path d="M-187.1,345.2c-86.1,0-155.9,69.8-155.9,155.9S-273.2,657-187.1,657s155.9-69.8,155.9-155.9S-101,345.2-187.1,345.2z
	 M-187.1,647.9c-81,0-146.7-65.7-146.7-146.7s65.7-146.7,146.7-146.7s146.7,65.7,146.7,146.7C-40.3,582.2-106,647.9-187.1,647.9z"/>
<path d="M-121.2,568.5h-9.2v-5.7h-3.5v-41.2h3.6v-4.9h9.1V511h6.3l-71.6-57.7l-71.6,57.8h5.9v5.7h9.4v4.9h3.3v41.2h-3.4v5.7h-9.2
	v5.7h-5.9v5.7h143.1v-5.7h-6.3C-121.2,574.3-121.2,568.5-121.2,568.5z M-186.5,478.7c7.3,0,13.2,4.8,13.2,10.7s-5.9,10.7-13.2,10.7
	s-13.2-4.8-13.2-10.7C-199.7,483.4-193.8,478.7-186.5,478.7z M-146.1,562.8h-3.8v5.7h-12.8v-5.7h-3.5v-41.2h3.6v-4.9h12.8v4.9h3.6
	L-146.1,562.8L-146.1,562.8z M-197.7,562.8v-41.2h3.6v-4.9h12v4.9h3.6v41.2h-3.8v5.7h-12v-5.7H-197.7z M-227.5,521.6h4v-4.9h9.9v4.9
	h3.6v41.2h-3.8v5.7h-9.9v-5.7h-3.9v-41.2H-227.5z"/>
<path d="M-86.4,442.2l-1.9,2.4c-0.1,0.1-0.2,0.1-0.2,0l-1.5-1.2c-0.1-0.1-0.1-0.2,0-0.2l1.9-2.4l-22-17.5l-48.5,60.7l1.2,1l1.9-2.4
	c0.1-0.1,0.2-0.1,0.2,0l1.5,1.2c0.1,0.1,0.1,0.2,0,0.2l-1.9,2.4l1.1,0.9l9.4-11.8c1-1.3,3.2-1.4,4.7-0.1l11.1,8.8
	c1.6,1.2,2,3.3,0.9,4.6l-9.4,11.8l4.2,3.3l48.4-60.8L-86.4,442.2z M-152.6,482.7c-0.1,0.1-0.2,0.1-0.2,0l-1.5-1.2
	c-0.1-0.1-0.1-0.2,0-0.2l2.5-3.1c0.1-0.1,0.2-0.1,0.2,0l1.5,1.2c0.1,0.1,0.1,0.2,0,0.2L-152.6,482.7z M-149.1,478.3
	c-0.1,0.1-0.2,0.1-0.2,0l-1.5-1.2c-0.1-0.1-0.1-0.2,0-0.2l2.5-3.1c0.1-0.1,0.2-0.1,0.2,0l1.5,1.2c0.1,0.1,0.1,0.2,0,0.2
	L-149.1,478.3z M-145.6,473.9c-0.1,0.1-0.2,0.1-0.2,0l-1.5-1.2c-0.1-0.1-0.1-0.2,0-0.2l2.5-3.1c0.1-0.1,0.2-0.1,0.2,0l1.5,1.2
	c0.1,0.1,0.1,0.2,0,0.2L-145.6,473.9z M-142,469.4c-0.1,0.1-0.2,0.1-0.2,0l-1.5-1.2c-0.1-0.1-0.1-0.2,0-0.2l2.5-3.1
	c0.1-0.1,0.2-0.1,0.2,0l1.5,1.2c0.1,0.1,0.1,0.2,0,0.2L-142,469.4z M-138.5,465c-0.1,0.1-0.2,0.1-0.2,0l-1.5-1.2
	c-0.1-0.1-0.1-0.2,0-0.2l2.5-3.1c0.1-0.1,0.2-0.1,0.2,0l1.5,1.2c0.1,0.1,0.1,0.2,0,0.2L-138.5,465z M-135,460.6
	c-0.1,0.1-0.2,0.1-0.2,0l-1.5-1.2c-0.1-0.1-0.1-0.2,0-0.2l2.5-3.1c0.1-0.1,0.2-0.1,0.2,0l1.5,1.2c0.1,0.1,0.1,0.2,0,0.2L-135,460.6z
	 M-131.5,456.2c-0.1,0.1-0.2,0.1-0.2,0l-1.5-1.2c-0.1-0.1-0.1-0.2,0-0.2l2.5-3.1c0.1-0.1,0.2-0.1,0.2,0l1.5,1.2
	c0.1,0.1,0.1,0.2,0,0.2L-131.5,456.2z M-127.9,451.8c-0.1,0.1-0.2,0.1-0.2,0l-1.5-1.2c-0.1-0.1-0.1-0.2,0-0.2l2.5-3.1
	c0.1-0.1,0.2-0.1,0.2,0l1.5,1.2c0.1,0.1,0.1,0.2,0,0.2L-127.9,451.8z M-124.4,447.3c-0.1,0.1-0.2,0.1-0.2,0l-1.5-1.2
	c-0.1-0.1-0.1-0.2,0-0.2l2.5-3.1c0.1-0.1,0.2-0.1,0.2,0l1.4,1.2c0.1,0.1,0.1,0.2,0,0.2L-124.4,447.3z M-120.9,442.9
	c-0.1,0.1-0.2,0.1-0.2,0l-1.5-1.2c-0.1-0.1-0.1-0.2,0-0.2l2.5-3.1c0.1-0.1,0.2-0.1,0.2,0l1.5,1.2c0.1,0.1,0.1,0.2,0,0.2
	L-120.9,442.9z M-117.4,438.5c-0.1,0.1-0.2,0.1-0.2,0l-1.5-1.2c-0.1-0.1-0.1-0.2,0-0.2l2.5-3.1c0.1-0.1,0.2-0.1,0.2,0l1.5,1.2
	c0.1,0.1,0.1,0.2,0,0.2L-117.4,438.5z M-113.9,434.1c-0.1,0.1-0.2,0.1-0.2,0l-1.5-1.2c-0.1-0.1-0.1-0.2,0-0.2l2.5-3.1
	c0.1-0.1,0.2-0.1,0.2,0l1.5,1.2c0.1,0.1,0.1,0.2,0,0.2L-113.9,434.1z M-110.4,429.7c-0.1,0.1-0.2,0.1-0.2,0l-1.5-1.2
	c-0.1-0.1-0.1-0.2,0-0.2l2.5-3.1c0.1-0.1,0.2-0.1,0.2,0l1.5,1.2c0.1,0.1,0.1,0.2,0,0.2L-110.4,429.7z M-122.3,446.8l11.9-14.9
	c1-1.3,3.2-1.4,4.7-0.1l11.1,8.8c1.6,1.2,2,3.3,0.9,4.6l-11.9,14.9c-1,1.3-3.2,1.4-4.7,0.1l-11.1-8.8
	C-123,450.2-123.4,448.2-122.3,446.8z M-122.8,481.9c-1,1.3-3.2,1.4-4.7,0.1l-11.1-8.8c-1.6-1.2-2-3.3-0.9-4.6l11.9-14.9
	c1-1.3,3.2-1.4,4.7-0.1l11.1,8.8c1.6,1.2,2,3.3,0.9,4.6L-122.8,481.9z M-134,502.1c-0.1,0.1-0.2,0.1-0.2,0l-1.5-1.2
	c-0.1-0.1-0.1-0.2,0-0.2l2.5-3.1c0.1-0.1,0.2-0.1,0.2,0l1.5,1.2c0.1,0.1,0.1,0.2,0,0.2L-134,502.1z M-130.5,497.6
	c-0.1,0.1-0.2,0.1-0.2,0l-1.5-1.2c-0.1-0.1-0.1-0.2,0-0.2l2.5-3.1c0.1-0.1,0.2-0.1,0.2,0l1.5,1.2c0.1,0.1,0.1,0.2,0,0.2
	L-130.5,497.6z M-127,493.2c-0.1,0.1-0.2,0.1-0.2,0l-1.5-1.2c-0.1-0.1-0.1-0.2,0-0.2l2.5-3.1c0.1-0.1,0.2-0.1,0.2,0l1.5,1.2
	c0.1,0.1,0.1,0.2,0,0.2L-127,493.2z M-123.5,488.8c-0.1,0.1-0.2,0.1-0.2,0l-1.5-1.2c-0.1-0.1-0.1-0.2,0-0.2l2.5-3.1
	c0.1-0.1,0.2-0.1,0.2,0l1.5,1.2c0.1,0.1,0.1,0.2,0,0.2L-123.5,488.8z M-120,484.4c-0.1,0.1-0.2,0.1-0.2,0l-1.5-1.2
	c-0.1-0.1-0.1-0.2,0-0.2l2.5-3.1c0.1-0.1,0.2-0.1,0.2,0l1.5,1.2c0.1,0.1,0.1,0.2,0,0.2L-120,484.4z M-116.4,480
	c-0.1,0.1-0.2,0.1-0.2,0l-1.5-1.2c-0.1-0.1-0.1-0.2,0-0.2l2.5-3.1c0.1-0.1,0.2-0.1,0.2,0l1.5,1.2c0.1,0.1,0.1,0.2,0,0.2L-116.4,480z
	 M-112.9,475.5c-0.1,0.1-0.2,0.1-0.2,0l-1.5-1.2c-0.1-0.1-0.1-0.2,0-0.2l2.5-3.1c0.1-0.1,0.2-0.1,0.2,0l1.5,1.2
	c0.1,0.1,0.1,0.2,0,0.2L-112.9,475.5z M-109.4,471.1c-0.1,0.1-0.2,0.1-0.2,0l-1.5-1.2c-0.1-0.1-0.1-0.2,0-0.2l2.5-3.1
	c0.1-0.1,0.2-0.1,0.2,0l1.5,1.2c0.1,0.1,0.1,0.2,0,0.2L-109.4,471.1z M-105.9,466.7c-0.1,0.1-0.2,0.1-0.2,0l-1.5-1.2
	c-0.1-0.1-0.1-0.2,0-0.2l2.5-3.1c0.1-0.1,0.2-0.1,0.2,0l1.5,1.2c0.1,0.1,0.1,0.2,0,0.2L-105.9,466.7z M-102.3,462.3
	c-0.1,0.1-0.2,0.1-0.2,0l-1.5-1.2c-0.1-0.1-0.1-0.2,0-0.2l2.5-3.1c0.1-0.1,0.2-0.1,0.2,0l1.5,1.2c0.1,0.1,0.1,0.2,0,0.2
	L-102.3,462.3z M-98.8,457.8c-0.1,0.1-0.2,0.1-0.2,0l-1.5-1.2c-0.1-0.1-0.1-0.2,0-0.2l2.5-3.1c0.1-0.1,0.2-0.1,0.2,0l1.5,1.2
	c0.1,0.1,0.1,0.2,0,0.2L-98.8,457.8z M-95.3,453.4c-0.1,0.1-0.2,0.1-0.2,0l-1.5-1.2c-0.1-0.1-0.1-0.2,0-0.2l2.5-3.1
	c0.1-0.1,0.2-0.1,0.2,0l1.5,1.2c0.1,0.1,0.1,0.2,0,0.2L-95.3,453.4z M-91.8,449c-0.1,0.1-0.2,0.1-0.2,0l-1.5-1.2
	c-0.1-0.1-0.1-0.2,0-0.2l2.5-3.1c0.1-0.1,0.2-0.1,0.2,0l1.5,1.2c0.1,0.1,0.1,0.2,0,0.2L-91.8,449z"/>
<g>
	<path d="M-243.4,402.3L-243.4,402.3C-243.4,402.2-243.4,402.2-243.4,402.3z"/>
	<path d="M-243.4,402.3c0,1.1-2.4,9.4-15.9,12.2c-17.6,3.7-26.7-2-26.7-2s3.4,71.2,30.5,60.9C-227.2,462.7-242.8,404.9-243.4,402.3z
		 M-271.9,431.3c4.1-1.3,6.8,1.4,7.7,2.9l-11.4,3.7C-274.9,435.5-275.9,432.6-271.9,431.3z M-259.3,465.1c-4.2,0.7-10-8.8-11.6-17.7
		c0,0,6.4,5.2,9,5.2s9-5.2,9-5.2C-252.8,455.6-255.2,464.4-259.3,465.1z M-258.1,434.1c1.5-2,1.7-5,5.9-4.8c4.2,0.3,5.7,3.8,6,5.5
		L-258.1,434.1z"/>
</g>
<path d="M-219.7,427.5c-15.8-5.3-15.9-12.6-15.9-12.6s-24.4,63.3,1.6,67.5c28,4.5,37.1-56.3,37.2-55.8
	C-196.7,427.1-207,431.8-219.7,427.5z M-229.6,441.7c4.2-0.5,4.7,0.8,5.3,2.5l-11.9,1.3C-235.1,443.3-233.8,442.2-229.6,441.7z
	 M-221.9,475.6c0,0-3.9-7.3-6.3-8.3c-2.4-1-10.3,1.3-10.3,1.3c3.1-7.6,8.8-9.6,12.9-8.6C-221.6,461-219.9,466.8-221.9,475.6z
	 M-210.7,453.8l-9.1-7.6c2.4-0.7,3.6-0.9,6.8,1.9C-209.7,450.8-209.8,452.2-210.7,453.8z"/>
</svg>
