<?xml version="1.0" encoding="utf-8"?>
<!-- Generator: Adobe Illustrator 19.1.0, SVG Export Plug-In . SVG Version: 6.00 Build 0)  -->
<svg version="1.1" id="Layer_1" xmlns="http://www.w3.org/2000/svg" xmlns:xlink="http://www.w3.org/1999/xlink" x="0px" y="0px"
	 viewBox="-323 125.2 311.8 311.8" style="enable-background:new -323 125.2 311.8 311.8;" xml:space="preserve">
<style type="text/css">
	.st0{opacity:0.6;}
</style>
<g id="cafes" class="st0">
	<path d="M-167.1,125.2c-86.1,0-155.9,69.8-155.9,155.9S-253.2,437-167.1,437s155.9-69.8,155.9-155.9S-81,125.2-167.1,125.2z
		 M-167.1,427.9c-81,0-146.7-65.7-146.7-146.7s65.7-146.7,146.7-146.7s146.7,65.7,146.7,146.7C-20.3,362.2-86,427.9-167.1,427.9z"/>
	<path d="M-71.2,287.9c-8.4-6.4-20-6.2-29.8-0.6c0-1.4-0.1-2.7-0.2-4c0-0.4,0.1-0.8,0.1-1.2v-6c0-17.4-31.8-31.6-70.7-31.6l0,0
		c-38.9,0-70.7,14.2-70.7,31.6v6c0,0.7,0.1,1.4,0.2,2.1c-0.3,4.5-0.2,9.3-0.2,14.4v13.5c0,38.9,31.8,70.7,70.7,70.7l0,0
		c28.9,0,54-17.6,64.9-42.7c11.7,6.6,28,2.3,37.9-10.6C-58.5,315.4-59.4,296.9-71.2,287.9z M-172,248.3c34.1,0,61.8,12.1,61.8,27.1
		s-27.7,27.1-61.8,27.1s-61.8-12.1-61.8-27.1S-206.2,248.3-172,248.3z M-76.5,323.6c-6.9,9.1-18.8,11.6-26.4,5.8
		c-0.1-0.1-0.2-0.2-0.3-0.3c1.4-5.5,2.1-11.3,2.1-17.2v-13c7-6.2,16.6-7.4,23.2-2.3C-70.2,302.5-69.6,314.6-76.5,323.6z"/>
	<path d="M-230,184c0,0,0.3,0.1,0.9,0.2c0.6,0.2,1.5,0.4,2.7,0.7c1.1,0.3,2.5,0.7,4.1,1.3c0.8,0.3,1.6,0.6,2.5,0.9
		c0.9,0.3,1.8,0.7,2.7,1.1s1.9,0.9,2.9,1.4s2,1.1,3,1.7c2.1,1.3,4.2,2.8,6.1,5.3c0.9,1.2,1.8,2.8,2,4.8c0,0.2,0,0.5,0,0.7v0.4v0.1
		c0,0.1,0-0.1,0,0.2l0,0v0.1l-0.1,0.5c0,0.2-0.1,0.6-0.2,0.9c-0.3,1.1-0.8,1.9-1.3,2.7c-1.1,1.5-2.3,2.5-3.5,3.4
		c-1.2,0.9-2.4,1.6-3.6,2.3c-2.3,1.3-4.5,2.6-6.3,4c-0.9,0.7-1.6,1.4-2.1,2.2c-0.5,0.7-0.9,1.6-1,2.4c0,0.3-0.1,0.6-0.1,0.9
		c0,0.2,0,0.4,0,0.5v0.3v0.3l0.1,0.7c0.1,0.5,0.2,0.9,0.3,1.4c0.2,0.5,0.3,0.9,0.5,1.4c0.8,1.9,1.9,3.6,3,5.2c1.1,1.6,2.2,3,3.3,4.2
		s2,2.3,2.8,3.1c0.8,0.9,1.4,1.5,1.9,2c0.4,0.5,0.7,0.7,0.7,0.7s-1.2-0.6-3.3-1.8c-1-0.6-2.2-1.4-3.6-2.4c-1.4-1-2.8-2.2-4.4-3.6
		c-1.5-1.4-3.1-3.2-4.4-5.4c-0.3-0.5-0.6-1.2-0.9-1.8s-0.5-1.3-0.7-2c-0.1-0.4-0.2-0.7-0.3-1.1l-0.1-0.6l-0.1-0.6
		c0-0.4-0.1-0.9-0.1-1.3c0-0.4,0-0.6,0.1-1c0.1-1.7,0.7-3.3,1.6-4.7c0.8-1.4,1.9-2.6,3.1-3.6c2.3-2,4.8-3.4,7-4.7
		c2.3-1.3,4.5-2.6,5.5-3.9c0.3-0.3,0.4-0.7,0.5-0.8c0,0,0,0,0.1-0.1l0.1-0.5V202l0,0c0,0.4,0,0.1,0,0.2l0,0v-0.1c0-0.1,0-0.1,0-0.2
		c0-0.6-0.3-1.4-0.8-2.2c-1-1.6-2.7-3.2-4.3-4.6c-1.7-1.4-3.4-2.6-5-3.7c-1.6-1.1-3.2-2.1-4.5-3c-1.4-0.8-2.6-1.6-3.6-2.2
		c-1-0.6-1.8-1.1-2.3-1.5C-229.7,184.2-230,184-230,184z"/>
	<path d="M-191.3,179.6c0,0,0.3,0.1,0.9,0.2c0.6,0.2,1.5,0.4,2.7,0.7c1.1,0.3,2.5,0.7,4.1,1.3c0.8,0.3,1.6,0.6,2.5,0.9
		s1.8,0.7,2.7,1.1s1.9,0.9,2.9,1.4s2,1.1,3,1.7c2.1,1.3,4.2,2.8,6.1,5.3c0.9,1.2,1.8,2.8,2,4.8c0,0.2,0,0.5,0,0.7v0.4v0.1
		c0,0.1,0-0.1,0,0.2l0,0v0.1l-0.1,0.5c0,0.2-0.1,0.6-0.2,0.9c-0.3,1.1-0.8,1.9-1.3,2.7c-1.1,1.5-2.3,2.5-3.5,3.4s-2.4,1.6-3.6,2.3
		c-2.3,1.3-4.5,2.6-6.3,4c-0.9,0.7-1.6,1.4-2.1,2.2c-0.5,0.7-0.9,1.6-1,2.4c0,0.3-0.1,0.6-0.1,0.9c0,0.2,0,0.4,0,0.5v0.3v0.3
		l0.1,0.7c0.1,0.5,0.2,0.9,0.3,1.4c0.2,0.5,0.3,0.9,0.5,1.4c0.8,1.9,1.9,3.6,3,5.2s2.2,3,3.3,4.2s2,2.3,2.8,3.1
		c0.8,0.9,1.4,1.5,1.9,2c0.4,0.5,0.7,0.7,0.7,0.7s-1.2-0.6-3.3-1.8c-1-0.6-2.2-1.4-3.6-2.4c-1.4-1-2.8-2.2-4.4-3.6
		c-1.5-1.4-3.1-3.2-4.4-5.4c-0.3-0.5-0.6-1.2-0.9-1.8c-0.3-0.6-0.5-1.3-0.7-2c-0.1-0.4-0.2-0.7-0.3-1.1l-0.1-0.6l-0.1-0.6
		c0-0.4-0.1-0.9-0.1-1.3c0-0.4,0-0.6,0.1-1c0.1-1.7,0.7-3.3,1.6-4.7c0.8-1.4,1.9-2.6,3.1-3.6c2.3-2,4.8-3.4,7-4.7
		c2.3-1.3,4.5-2.6,5.5-3.9c0.3-0.3,0.4-0.7,0.5-0.8c0,0,0,0,0.1-0.1l0.1-0.5v-0.1l0,0c0,0.4,0,0.1,0,0.2l0,0v-0.1c0-0.1,0-0.1,0-0.2
		c0-0.6-0.3-1.4-0.8-2.2c-1-1.6-2.7-3.2-4.3-4.6c-1.7-1.4-3.4-2.6-5-3.7c-1.6-1.1-3.2-2.1-4.5-3c-1.4-0.8-2.6-1.6-3.6-2.2
		s-1.8-1.1-2.3-1.5C-191,179.8-191.3,179.6-191.3,179.6z"/>
	<path d="M-148.4,184c0,0,0.3,0.1,0.9,0.2c0.6,0.2,1.5,0.4,2.7,0.7c1.1,0.3,2.5,0.7,4.1,1.3c0.8,0.3,1.6,0.6,2.5,0.9
		c0.9,0.3,1.8,0.7,2.7,1.1s1.9,0.9,2.9,1.4s2,1.1,3,1.7c2.1,1.3,4.2,2.8,6.1,5.3c0.9,1.2,1.8,2.8,2,4.8c0,0.2,0,0.5,0,0.7v0.4v0.1
		c0,0.1,0-0.1,0,0.2l0,0v0.1l-0.1,0.5c0,0.2-0.1,0.6-0.2,0.9c-0.3,1.1-0.8,1.9-1.3,2.7c-1.1,1.5-2.3,2.5-3.5,3.4s-2.4,1.6-3.6,2.3
		c-2.3,1.3-4.5,2.6-6.3,4c-0.9,0.7-1.6,1.4-2.1,2.2c-0.5,0.7-0.9,1.6-1,2.4c0,0.3-0.1,0.6-0.1,0.9c0,0.2,0,0.4,0,0.5v0.3v0.3
		l0.1,0.7c0.1,0.5,0.2,0.9,0.3,1.4c0.2,0.5,0.3,0.9,0.5,1.4c0.8,1.9,1.9,3.6,3,5.2s2.2,3,3.3,4.2s2,2.3,2.8,3.1
		c0.8,0.9,1.4,1.5,1.9,2c0.4,0.5,0.7,0.7,0.7,0.7s-1.2-0.6-3.3-1.8c-1-0.6-2.2-1.4-3.6-2.4c-1.4-1-2.8-2.2-4.4-3.6
		c-1.5-1.4-3.1-3.2-4.4-5.4c-0.3-0.5-0.6-1.2-0.9-1.8c-0.3-0.6-0.5-1.3-0.7-2c-0.1-0.4-0.2-0.7-0.3-1.1l-0.1-0.6l-0.1-0.6
		c0-0.4-0.1-0.9-0.1-1.3c0-0.4,0-0.6,0.1-1c0.1-1.7,0.7-3.3,1.6-4.7c0.8-1.4,1.9-2.6,3.1-3.6c2.3-2,4.8-3.4,7-4.7
		c2.3-1.3,4.5-2.6,5.5-3.9c0.3-0.3,0.4-0.7,0.5-0.8c0,0,0,0,0.1-0.1l0.1-0.5V202l0,0c0,0.4,0,0.1,0,0.2l0,0v-0.1c0-0.1,0-0.1,0-0.2
		c0-0.6-0.3-1.4-0.8-2.2c-1-1.6-2.7-3.2-4.3-4.6c-1.7-1.4-3.4-2.6-5-3.7c-1.6-1.1-3.2-2.1-4.5-3c-1.4-0.8-2.6-1.6-3.6-2.2
		c-1-0.6-1.8-1.1-2.3-1.5C-148.1,184.2-148.4,184-148.4,184z"/>
</g>
</svg>
