<?xml version="1.0" encoding="utf-8"?>
<!-- Generator: Adobe Illustrator 19.1.0, SVG Export Plug-In . SVG Version: 6.00 Build 0)  -->
<svg version="1.1" id="Layer_1" xmlns="http://www.w3.org/2000/svg" xmlns:xlink="http://www.w3.org/1999/xlink" x="0px" y="0px"
	 viewBox="-323 125.2 311.8 311.8" style="enable-background:new -323 125.2 311.8 311.8;" xml:space="preserve">
<style type="text/css">
	.st0{opacity:0.52;enable-background:new    ;}
	.st1{fill:#FFFFFF;}
</style>
<circle class="st0" cx="-166.5" cy="281.1" r="155.9"/>
<g>
	<path class="st1" d="M-247.6,268.6c-2,1-6,2-11.2,2c-12,0-21-7.6-21-21.5c0-13.3,9-22.3,22.2-22.3c5.3,0,8.6,1.1,10.1,1.9l-1.3,4.5
		c-2.1-1-5-1.8-8.6-1.8c-10,0-16.6,6.4-16.6,17.5c0,10.4,6,17.1,16.3,17.1c3.3,0,6.7-0.7,8.9-1.8L-247.6,268.6z"/>
	<path class="st1" d="M-233.6,256.6L-238,270h-5.7l14.4-42.5h6.6l14.5,42.5h-5.9l-4.5-13.4H-233.6z M-219.7,252.3l-4.2-12.2
		c-0.9-2.8-1.6-5.3-2.2-7.7h-0.1c-0.6,2.5-1.3,5.1-2.1,7.7l-4.2,12.3H-219.7z"/>
	<path class="st1" d="M-166.4,251.3c-0.3-5.9-0.7-13-0.6-18.3h-0.2c-1.4,5-3.2,10.3-5.4,16.1l-7.5,20.6h-4.2l-6.9-20.2
		c-2-6-3.7-11.5-4.9-16.5h-0.1c-0.1,5.3-0.4,12.4-0.8,18.8l-1.1,18.2h-5.2l3-42.5h7l7.2,20.5c1.8,5.2,3.2,9.9,4.3,14.3h0.2
		c1.1-4.3,2.6-8.9,4.5-14.3l7.6-20.5h7l2.6,42.5h-5.4L-166.4,251.3z"/>
	<path class="st1" d="M-151.5,228c2.6-0.4,6.1-0.8,10.5-0.8c5.4,0,9.4,1.3,11.9,3.5c2.3,2,3.7,5.1,3.7,8.9c0,3.8-1.1,6.9-3.3,9.1
		c-2.9,3.1-7.6,4.7-13,4.7c-1.6,0-3.2-0.1-4.4-0.4v17h-5.5V228z M-146.1,248.5c1.2,0.3,2.7,0.4,4.5,0.4c6.6,0,10.6-3.2,10.6-9.1
		c0-5.6-4-8.3-10-8.3c-2.4,0-4.2,0.2-5.2,0.4V248.5z"/>
	<path class="st1" d="M-112.5,227.5v25.1c0,9.5,4.2,13.5,9.9,13.5c6.3,0,10.3-4.2,10.3-13.5v-25.1h5.5v24.8c0,13-6.9,18.4-16.1,18.4
		c-8.7,0-15.2-5-15.2-18.1v-25H-112.5z"/>
	<path class="st1" d="M-78,263.3c2.5,1.5,6,2.8,9.8,2.8c5.6,0,8.9-3,8.9-7.2c0-4-2.3-6.2-8-8.4c-6.9-2.5-11.2-6-11.2-12
		c0-6.6,5.5-11.5,13.7-11.5c4.3,0,7.5,1,9.4,2.1l-1.5,4.5c-1.4-0.8-4.2-2-8.1-2c-5.8,0-8,3.5-8,6.4c0,4,2.6,5.9,8.4,8.2
		c7.2,2.8,10.8,6.2,10.8,12.5c0,6.6-4.9,12.2-14.9,12.2c-4.1,0-8.6-1.2-10.8-2.7L-78,263.3z"/>
	<path class="st1" d="M-187,326.9c-0.3-5.9-0.7-13-0.6-18.3h-0.2c-1.4,5-3.2,10.3-5.4,16.1l-7.5,20.6h-4.2l-6.9-20.2
		c-2-6-3.7-11.5-4.9-16.5h-0.1c-0.1,5.3-0.4,12.4-0.8,18.8l-1.1,18.2h-5.2l3-42.5h7l7.2,20.5c1.8,5.2,3.2,9.9,4.3,14.3h0.2
		c1.1-4.3,2.6-8.9,4.5-14.3l7.6-20.5h7l2.6,42.5h-5.4L-187,326.9z"/>
	<path class="st1" d="M-165.9,332.2l-4.4,13.4h-5.7l14.4-42.5h6.6l14.5,42.5h-5.9l-4.5-13.4H-165.9z M-152,327.9l-4.2-12.2
		c-0.9-2.8-1.6-5.3-2.2-7.8h-0.1c-0.6,2.5-1.3,5.1-2.1,7.7l-4.2,12.3H-152z"/>
	<path class="st1" d="M-134.2,303.6c2.6-0.4,6.1-0.8,10.5-0.8c5.4,0,9.4,1.3,11.9,3.5c2.3,2,3.7,5.1,3.7,8.9c0,3.8-1.1,6.9-3.3,9.1
		c-2.9,3.1-7.6,4.7-13,4.7c-1.6,0-3.2-0.1-4.4-0.4v17h-5.5V303.6z M-128.7,324.1c1.2,0.3,2.7,0.4,4.5,0.4c6.6,0,10.6-3.2,10.6-9.1
		c0-5.6-4-8.3-10-8.3c-2.4,0-4.2,0.2-5.2,0.4V324.1z"/>
</g>
</svg>
