<?xml version="1.0" encoding="utf-8"?>
<!-- Generator: Adobe Illustrator 19.1.0, SVG Export Plug-In . SVG Version: 6.00 Build 0)  -->
<svg version="1.1" id="Layer_1" xmlns="http://www.w3.org/2000/svg" xmlns:xlink="http://www.w3.org/1999/xlink" x="0px" y="0px"
	 viewBox="-323 125.2 311.8 311.8" style="enable-background:new -323 125.2 311.8 311.8;" xml:space="preserve">
<style type="text/css">
	.st0{opacity:0.52;}
	.st1{stroke:#000000;stroke-width:2;stroke-miterlimit:10;}
</style>
<g class="st0">
	<path d="M-19.2,195.4v166.8H-315V195.4H-19.2 M-11.2,187.4H-323v182.8h311.8V187.4L-11.2,187.4z"/>
</g>
<g class="st0">
	<path class="st1" d="M-273,291.2c-1.4,0.7-4.3,1.4-8,1.4c-8.5,0-15-5.4-15-15.3c0-9.5,6.4-15.9,15.8-15.9c3.8,0,6.2,0.8,7.2,1.4
		l-0.9,3.2c-1.5-0.7-3.6-1.3-6.1-1.3c-7.1,0-11.8,4.5-11.8,12.5c0,7.4,4.3,12.2,11.7,12.2c2.4,0,4.8-0.5,6.4-1.3L-273,291.2z"/>
	<path class="st1" d="M-263.1,282.7l-3.1,9.5h-4l10.3-30.3h4.7l10.3,30.3h-4.2l-3.2-9.5H-263.1z M-253.1,279.6l-3-8.7
		c-0.7-2-1.1-3.8-1.6-5.5h-0.1c-0.4,1.8-0.9,3.6-1.5,5.5l-3,8.8H-253.1z"/>
	<path class="st1" d="M-215,278.9c-0.2-4.2-0.5-9.3-0.5-13.1h-0.1c-1,3.6-2.3,7.3-3.8,11.5l-5.4,14.7h-3l-4.9-14.4
		c-1.4-4.3-2.7-8.2-3.5-11.8h-0.1c-0.1,3.8-0.3,8.9-0.6,13.4l-0.8,13h-3.7l2.1-30.3h5l5.2,14.7c1.3,3.7,2.3,7.1,3.1,10.2h0.1
		c0.8-3.1,1.8-6.4,3.2-10.2l5.4-14.7h5l1.9,30.3h-3.8L-215,278.9z"/>
	<path class="st1" d="M-204.4,262.3c1.9-0.3,4.4-0.6,7.5-0.6c3.9,0,6.7,0.9,8.5,2.5c1.7,1.4,2.7,3.6,2.7,6.3c0,2.7-0.8,4.9-2.3,6.5
		c-2.1,2.2-5.4,3.3-9.3,3.3c-1.2,0-2.2,0-3.1-0.3v12.1h-3.9V262.3z M-200.5,276.9c0.9,0.2,1.9,0.3,3.2,0.3c4.7,0,7.6-2.3,7.6-6.5
		c0-4-2.8-5.9-7.2-5.9c-1.7,0-3,0.1-3.7,0.3V276.9z"/>
	<path class="st1" d="M-176.6,261.9v18c0,6.8,3,9.7,7.1,9.7c4.5,0,7.4-3,7.4-9.7v-18h4v17.7c0,9.3-4.9,13.1-11.5,13.1
		c-6.2,0-10.9-3.6-10.9-13v-17.9H-176.6z"/>
	<path class="st1" d="M-151.9,287.5c1.8,1.1,4.3,2,7,2c4,0,6.3-2.1,6.3-5.2c0-2.8-1.6-4.5-5.7-6c-4.9-1.8-8-4.3-8-8.6
		c0-4.7,3.9-8.2,9.8-8.2c3.1,0,5.4,0.7,6.7,1.5l-1.1,3.2c-1-0.5-3-1.4-5.8-1.4c-4.1,0-5.7,2.5-5.7,4.5c0,2.8,1.8,4.2,6,5.8
		c5.1,2,7.7,4.5,7.7,8.9c0,4.7-3.5,8.7-10.6,8.7c-2.9,0-6.1-0.9-7.7-1.9L-151.9,287.5z"/>
	<path class="st1" d="M-94.1,278.9c-0.2-4.2-0.5-9.3-0.4-13.1h-0.1c-1,3.6-2.3,7.3-3.8,11.5l-5.4,14.7h-3l-4.9-14.4
		c-1.4-4.3-2.7-8.2-3.5-11.8h-0.1c-0.1,3.8-0.3,8.9-0.6,13.4l-0.8,13h-3.7l2.1-30.3h5l5.2,14.7c1.3,3.7,2.3,7.1,3.1,10.2h0.1
		c0.8-3.1,1.8-6.4,3.2-10.2l5.4-14.7h5l1.9,30.3h-3.8L-94.1,278.9z"/>
	<path class="st1" d="M-79,282.7l-3.1,9.5h-4l10.3-30.3h4.7l10.3,30.3H-65l-3.2-9.5H-79z M-69.1,279.6l-3-8.7
		c-0.7-2-1.1-3.8-1.6-5.5h-0.1c-0.5,1.8-0.9,3.6-1.5,5.5l-3,8.8H-69.1z"/>
	<path class="st1" d="M-56.4,262.3c1.9-0.3,4.4-0.6,7.5-0.6c3.9,0,6.7,0.9,8.5,2.5c1.7,1.4,2.7,3.6,2.7,6.3c0,2.7-0.8,4.9-2.3,6.5
		c-2.1,2.2-5.4,3.3-9.3,3.3c-1.2,0-2.3,0-3.1-0.3v12.1h-3.9V262.3z M-52.5,276.9c0.9,0.2,1.9,0.3,3.2,0.3c4.7,0,7.6-2.3,7.6-6.5
		c0-4-2.8-5.9-7.2-5.9c-1.7,0-3,0.1-3.7,0.3V276.9z"/>
</g>
</svg>
