<?xml version="1.0" encoding="utf-8"?>
<!-- Generator: Adobe Illustrator 19.1.0, SVG Export Plug-In . SVG Version: 6.00 Build 0)  -->
<svg version="1.1" id="Layer_1" xmlns="http://www.w3.org/2000/svg" xmlns:xlink="http://www.w3.org/1999/xlink" x="0px" y="0px"
	 viewBox="-323 125.2 311.8 311.8" style="enable-background:new -323 125.2 311.8 311.8;" xml:space="preserve">
<style type="text/css">
	.st0{opacity:0.52;enable-background:new    ;}
	.st1{fill:none;stroke:#BEBEBE;stroke-width:5;stroke-miterlimit:10;}
	.st2{fill:#FFFFFF;}
</style>
<circle class="st0" cx="-167.1" cy="281.1" r="155.9"/>
<g id="city_info">
	<path class="st1" d="M-65.9,355.9"/>
	<path class="st1" d="M-65.9,294.4"/>
	<path class="st2" d="M-53.8,323.3c1.8-35.8,5.5-38.8-0.6-55c-1.1-2.8-2.2-5.4-3.3-7.8c-6.1-13.2-11.9-21.8-15.2-5.7
		c-1.9,9.1-9,31.7-7.8,41.9c3.2,25.8,5.1,26.2,5.8,34c0.3,2.7,3.2,9.5,6.4,11.8h-19.8c1.2-0.7,1.9-1.9,1.9-3.4v-109
		c0-2.2-1.8-4-4.1-4H-163c-2.2,0-4.1,1.8-4.1,4v31.6l-3.8-3.5l-17.7,16.3v-64c0-5.5-3.5-10-7.7-10h-36.1c-4.3,0-7.7,4.5-7.7,10
		v107.2c-0.8-1-1.7-2.2-2.8-3.7c-1.3-1.8-6.4-13.6-7.7-15.1c-7.5-8.3-18.3-2.1-22.4,8c-2.3,5.7-14.2,7.1-12.6,13.5
		c3.8,15.5,12.1,17.6,13.7,22h-6.9c-1.7,0-3,1.4-3,3c0,1.7,1.3,3,3,3H-58c1.7,0,3-1.3,3-3c0-1.6-1.3-3-3-3h-4.9
		C-58,340.3-54.2,332.7-53.8,323.3z M-123.4,310.2h8.8l-5-4.6h25.2c0.5,0,0.9,0.4,0.9,0.9v16c0,0.5-0.4,0.9-0.9,0.9h-29.1v-13.2
		H-123.4z M-185.3,341.1v-16.6c0-6.9,4.6-12.8,10.8-14.3h8.4c6.2,1.5,10.8,7.4,10.8,14.3v16.6c0,0.5,0,1-0.1,1.5h-29.9
		C-185.3,342.1-185.3,341.6-185.3,341.1z M-93.4,283.9v14c0,0.6-0.6,1-1.3,1h-32l-18.9-17.4H-96C-93.5,281.6-93.4,282.3-93.4,283.9z
		 M-161.5,233.5c0-0.5,0.4-0.9,0.9-0.9h65.3c0.5,0,0.9,0.4,0.9,0.9v15.7c0,0.5-0.4,0.9-0.9,0.9h-65.3c-0.5,0-0.9-0.4-0.9-0.9V233.5z
		 M-161.5,260.7c0-1.8,0.7-3.4,2.5-3.4h64.6c0.5,0,1,0.5,1,1v15.3c0,0.6-0.4,1-1,1h-58.8l-8.3-7.7
		C-161.5,264.4-161.5,261.8-161.5,260.7z M-232.1,216h35.8v16.7h-35.8V216z M-232.1,240.7h35.8v16.7h-35.8V240.7z M-232.1,264.3
		h35.8v15.6h-35.8V264.3z M-232.1,287.6h26.7v2.6l-11.8,10.9h-0.5v0.4l-3,2.8h-11.4V287.6z M-218.8,310.7v31.9h-13.3v-31.9H-218.8z
		 M-238.7,340.4c0.5,0.9,1,1.6,1.7,2.2h-2c0-0.1,0-0.3,0.1-0.4C-238.8,341.5-238.8,340.9-238.7,340.4z M-246.7,342.6h-6.8
		C-250.9,341.9-248.7,342.1-246.7,342.6z"/>
</g>
</svg>
