<?xml version="1.0" encoding="utf-8"?>
<!-- Generator: Adobe Illustrator 19.1.0, SVG Export Plug-In . SVG Version: 6.00 Build 0)  -->
<svg version="1.1" id="Layer_1" xmlns="http://www.w3.org/2000/svg" xmlns:xlink="http://www.w3.org/1999/xlink" x="0px" y="0px"
	 viewBox="-323 125.2 311.8 311.8" style="enable-background:new -323 125.2 311.8 311.8;" xml:space="preserve">
<style type="text/css">
	.st0{opacity:0.6;}
</style>
<g id="entertainment" class="st0">
	<path d="M-167.1,125.2c-86.1,0-155.9,69.8-155.9,155.9S-253.2,437-167.1,437s155.9-69.8,155.9-155.9S-81,125.2-167.1,125.2z
		 M-167.1,427.9c-81,0-146.7-65.7-146.7-146.7s65.7-146.7,146.7-146.7s146.7,65.7,146.7,146.7C-20.3,362.2-86,427.9-167.1,427.9z"/>
	<path d="M-169.1,247.3c-43.8,0-79.4,19.4-79.4,43.4c0,6.1,2.3,11.9,6.4,17.1c4.5,5.4,10.7,10.3,18.3,14.3c0.2,0.1,0.3,0.2,0.5,0.3
		s0.4,0.2,0.6,0.3c0.5,0.2,0.9,0.5,1.4,0.7l0,0v9.2v15.9v8.4v3.8v18.6c19.5,28.6,83.7,28.1,104.4,0v-18.6v-3.8v-24.2l0,0v-9.2l0,0
		l0,0c0.5-0.2,0.9-0.4,1.4-0.7c0.2-0.1,0.4-0.2,0.6-0.3c0.2-0.1,0.3-0.2,0.5-0.3c7.6-4,13.8-8.9,18.3-14.3c4.1-5.3,6.4-11,6.4-17.1
		C-89.7,266.8-125.3,247.3-169.1,247.3z M-169.1,257.2c27.6,0,50,12.2,50,27.3c0,15.1-22.4,27.3-50,27.3s-50-12.2-50-27.3
		C-219.1,269.4-196.7,257.2-169.1,257.2z M-119.3,333.8c-13.7,6.3-31,10-49.8,10s-36.1-3.7-49.8-10v-9.2c13.7,6.3,31,10,49.8,10
		s36.1-3.7,49.8-10V333.8z"/>
	<polygon points="-232.3,220.8 -241.1,218.1 -248.4,223.8 -248.5,214.5 -256.2,209.4 -247.4,206.4 -244.9,197.5 -239.4,204.9 
		-230.1,204.6 -235.5,212.2 	"/>
	<polygon points="-120.4,210.7 -125.7,199.9 -137.5,198.2 -129,189.8 -131,178 -120.4,183.6 -109.8,178 -111.8,189.8 -103.2,198.2 
		-115.1,199.9 	"/>
	<polygon points="-191.1,194.3 -179.1,205.5 -163.1,202.1 -170.1,216.9 -161.8,231 -178.1,229 -189,241.2 -192,225.1 -207,218.5 
		-192.7,210.6 	"/>
	<polygon points="-78,244.1 -83.3,244.2 -86.2,248.6 -87.9,243.6 -93,242.2 -88.8,239 -89,233.7 -84.7,236.8 -79.7,234.9 -81.3,240 
			"/>
	<polygon points="-199.5,162 -199.9,169 -194.4,173.2 -201.1,175 -203.4,181.6 -207.2,175.7 -214.2,175.6 -209.8,170.1 
		-211.8,163.5 -205.3,165.9 	"/>
	<g>
		<path d="M-233.5,223.8c-0.1,0,0.5,0,1.3,0c0.8,0.1,1.9,0.2,3.2,0.5c1.3,0.3,2.9,0.8,4.7,1.5c1.7,0.7,3.6,1.8,5.5,3
			c1.9,1.3,3.8,2.8,5.7,4.6s3.6,3.8,5.4,6c0.8,1.1,1.7,2.2,2.5,3.4c0.4,0.6,0.8,1.2,1.2,1.8s0.7,1.2,1.1,1.9
			c1.5,2.5,2.8,5.1,4.1,7.8c1.2,2.7,2.3,5.4,3.3,8.1c0.5,1.3,1,2.7,1.4,4c0.5,1.3,0.9,2.7,1.3,4c0.4,1.3,0.8,2.6,1.1,3.9
			c0.3,1.3,0.7,2.5,1,3.7c0.7,2.4,1.1,4.7,1.6,6.9c0.5,2.1,0.8,4.1,1.2,5.8s0.6,3.3,0.8,4.5c0.4,2.5,0.6,3.9,0.6,3.9
			s-0.3-1.4-0.8-3.9c-0.3-1.2-0.5-2.8-1-4.5c-0.4-1.7-0.8-3.7-1.4-5.8c-0.6-2.1-1.1-4.4-1.9-6.8c-0.4-1.2-0.7-2.4-1.1-3.7
			c-0.4-1.2-0.9-2.5-1.3-3.8c-0.4-1.3-0.9-2.6-1.4-3.9c-0.5-1.3-1-2.6-1.6-3.9c-1.1-2.6-2.3-5.2-3.6-7.8c-1.3-2.6-2.7-5.1-4.3-7.4
			c-0.4-0.6-0.8-1.2-1.2-1.8c-0.4-0.6-0.8-1.1-1.2-1.7c-0.8-1.1-1.7-2.2-2.5-3.2c-1.7-2-3.5-3.9-5.3-5.5c-1.8-1.6-3.6-3-5.4-4
			c-1.8-1.1-3.5-1.9-5-2.5c-1.6-0.6-2.9-0.9-4.1-1.2c-1.1-0.2-2-0.3-2.6-0.3s-0.8,0-0.8,0L-233.5,223.8z"/>
	</g>
	<g>
		<path d="M-102.8,246.5c0,0-0.3,0-0.8,0.1c-0.2,0-0.6,0.1-0.9,0.2c-0.3,0.1-0.7,0.2-1.1,0.3c-0.9,0.2-1.9,0.5-3.2,1
			c-1.2,0.4-2.6,1-4,1.7c-1.5,0.7-3,1.5-4.6,2.4s-3.3,2-5,3.1c-3.4,2.3-6.9,5-10.2,7.9s-6.4,6.1-9,9.3c-1.3,1.6-2.5,3.2-3.6,4.7
			s-2.1,3.1-2.9,4.5c-0.8,1.4-1.5,2.8-2.1,4c-0.5,1.2-1,2.3-1.3,3.3c-0.3,0.9-0.5,1.7-0.6,2.2s-0.2,0.8-0.2,0.8s0.1-0.3,0.2-0.8
			c0.1-0.5,0.2-1.3,0.5-2.2c0.2-0.9,0.6-2.1,1.1-3.3c0.5-1.3,1.1-2.7,1.8-4.2s1.6-3.1,2.7-4.7c1-1.6,2.2-3.3,3.4-5
			c2.5-3.4,5.4-6.8,8.6-9.9c6.3-6.4,13.6-11.8,19.7-15.1c1.5-0.8,2.9-1.5,4.2-2.1s2.5-1,3.5-1.3c0.5-0.1,1-0.3,1.4-0.4
			c0.4-0.1,0.7-0.2,1-0.2c0.5-0.1,0.8-0.2,0.8-0.2L-102.8,246.5z"/>
	</g>
	<g>
		<path d="M-140.3,217.4c0,0-0.2,0.2-0.6,0.7c-0.2,0.2-0.5,0.5-0.8,0.8s-0.6,0.7-0.9,1.1c-0.3,0.4-0.7,0.9-1.1,1.4
			c-0.4,0.5-0.8,1.1-1.3,1.7c-0.9,1.3-1.8,2.7-2.8,4.4c-1,1.6-2,3.5-2.9,5.4c-1,2-2,4.1-2.9,6.3c-1.9,4.4-3.7,9.3-5.4,14.2
			c-3.3,9.8-5.8,19.9-7.3,27.5c-0.8,3.8-1.3,7-1.5,9.3c-0.3,2.3-0.4,3.6-0.4,3.6s0-1.3,0.2-3.6s0.5-5.5,1.1-9.4c1.1-7.7,3.2-18,6-28
			c1.4-5,3-10,4.8-14.6c0.9-2.3,1.8-4.5,2.7-6.6s1.8-4,2.8-5.8c0.9-1.8,1.8-3.4,2.7-4.7c0.4-0.7,0.9-1.3,1.3-1.9
			c0.4-0.6,0.8-1.1,1.2-1.6s0.7-0.9,1-1.3c0.3-0.3,0.5-0.6,0.7-0.9c0.4-0.5,0.6-0.7,0.6-0.7L-140.3,217.4z"/>
	</g>
</g>
</svg>
