<?xml version="1.0" encoding="utf-8"?>
<!-- Generator: Adobe Illustrator 19.1.0, SVG Export Plug-In . SVG Version: 6.00 Build 0)  -->
<svg version="1.1" id="Layer_1" xmlns="http://www.w3.org/2000/svg" xmlns:xlink="http://www.w3.org/1999/xlink" x="0px" y="0px"
	 viewBox="-323 125.2 311.8 311.8" style="enable-background:new -323 125.2 311.8 311.8;" xml:space="preserve">
<style type="text/css">
	.st0{opacity:0.52;enable-background:new    ;}
	.st1{fill:#FFFFFF;}
</style>
<circle class="st0" cx="-166.1" cy="282.1" r="155.9"/>
<g id="events">
	<g>
		<polygon class="st1" points="-204.3,329.8 -175.4,315.6 -146.3,329.4 -152,299.8 -128.6,278.7 -161.1,274.6 -175.8,247.7 
			-190.1,274.7 -222.5,279.2 -199,300.1 		"/>
		<path class="st1" d="M-88.4,233.4L-88.4,233.4c-3.1-7.8-10.8-13.4-19.7-13.4h-12.5l0,0c0.2-0.6,0.3-1.1,0.3-1.7V208
			c0-2.9-1.9-5.7-4.8-6.3c-4-0.9-7.7,2.2-7.7,6.1v10.5c0,0.6,0.1,1.2,0.3,1.7l0,0h-37l0,0c0.2-0.6,0.3-1.1,0.3-1.7v-10.5
			c0-3.4-2.8-6.3-6.3-6.3l0,0c-3.4,0-6.2,2.8-6.2,6.2v10.5c0,0.6,0.1,1.2,0.3,1.7l0,0h-37.5l0,0c0.2-0.6,0.3-1.1,0.3-1.7V208
			c0-2.9-1.9-5.7-4.8-6.3c-4-0.9-7.7,2.2-7.7,6.1v10.5c0,0.6,0.1,1.2,0.3,1.7l0,0h-10c-11.7,0-21.2,9.6-21.2,21.2v88.5
			c0,9.8,6.8,18.1,15.9,20.5l0,0c3.8,6.1,10,12.6,16.9,12.6H-96c11.6,0,21-9.5,21-21v-89C-75,244-80.6,236.5-88.4,233.4z
			 M-256.8,332.6v-81.4c0-11.4,11-14,19.2-14h126c8.2,0,18,1.8,18,13.6v80.9c0,7.7-9.8,14.4-18,14.4h-126
			C-245.8,346.1-256.8,340.3-256.8,332.6z M-82.8,340.5c0,8.2-8.8,15.1-17,15.1h-126c-2.8,0-8.3-2.5-11.8-4.5h129.5
			c11.7,0,21.2-9.6,21.2-21.2v-81.6c2,1.5,4,2.3,4,5.2v87L-82.8,340.5L-82.8,340.5z"/>
	</g>
</g>
</svg>
