<?xml version="1.0" encoding="utf-8"?>
<!-- Generator: Adobe Illustrator 19.1.0, SVG Export Plug-In . SVG Version: 6.00 Build 0)  -->
<svg version="1.1" id="Layer_1" opacity="0.6" xmlns="http://www.w3.org/2000/svg" xmlns:xlink="http://www.w3.org/1999/xlink"
	 x="0px" y="0px" viewBox="-343 345.2 311.8 311.8" style="enable-background:new -343 345.2 311.8 311.8;" xml:space="preserve">
<g id="public_holidays">
	<path d="M-187.1,345.2c-86.1,0-155.9,69.8-155.9,155.9S-273.2,657-187.1,657s155.9-69.8,155.9-155.9S-101,345.2-187.1,345.2z
		 M-187.1,647.9c-81,0-146.7-65.7-146.7-146.7s65.7-146.7,146.7-146.7s146.7,65.7,146.7,146.7C-40.3,582.2-106,647.9-187.1,647.9z"
		/>
</g>
<path d="M-177.9,468.5h-104c-2.7,0-5,2.3-5,5v13c0,2.8,2.2,5,5,5h104c2.7,0,5-2.3,5-5v-13C-173,470.7-175.2,468.5-177.9,468.5z
	 M-176.9,483.5c0,2.8-2.2,5-5,5h-97.5c-2.7,0-5-2.3-5-5v-7.4c0-2.8,2.2-5,5-5h97.5c2.7,0,5,2.3,5,5
	C-176.9,476.1-176.9,483.5-176.9,483.5z"/>
<path d="M-177.9,513h-102.8c-2.7,0-4.9,2.3-4.9,5v13c0,2.8,2.2,5,4.9,5h102.8c2.7,0,4.9-2.3,4.9-5v-13
	C-173,515.2-175.2,513-177.9,513z M-176.2,528.2c0,2.8-2.2,5-4.9,5h-96.4c-2.7,0-4.9-2.3-4.9-5v-7.4c0-2.8,2.2-5,4.9-5h96.4
	c2.7,0,4.9,2.3,4.9,5C-176.2,520.8-176.2,528.2-176.2,528.2z"/>
<polygon points="-177.9,515.3 -202.9,515.3 -202.9,489.2 -176.9,489.2 "/>
<polygon points="-179.9,559 -202.9,559 -202.9,535.2 -178.9,535.2 "/>
<polygon points="-256.4,515.5 -281.4,515.5 -282.4,489.3 -256.4,489.3 "/>
<polygon points="-256.4,559 -278.4,559 -280.4,535.2 -256.4,535.2 "/>
<rect x="-253.4" y="444.6" width="22.7" height="23.8"/>
<rect x="-253.4" y="489.3" width="22.7" height="23.8"/>
<rect x="-228.3" y="444.6" width="23" height="23.8"/>
<rect x="-228.3" y="491.5" width="23" height="23.8"/>
<rect x="-253.3" y="535.2" width="22.7" height="23.8"/>
<rect x="-228.2" y="535.2" width="23" height="23.8"/>
<path d="M-202.9,420.8v47.7h26v-47.7H-202.9z M-189.9,441.3c-3.6,0-6.5-2.9-6.5-6.5c0-3.6,2.9-6.5,6.5-6.5c3.6,0,6.5,2.9,6.5,6.5
	C-183.4,438.3-186.3,441.3-189.9,441.3z"/>
<path d="M-282.4,420.8v47.7h26v-47.7H-282.4z M-269.4,441.3c-3.6,0-6.5-2.9-6.5-6.5c0-3.6,2.9-6.5,6.5-6.5s6.5,2.9,6.5,6.5
	C-262.9,438.3-265.8,441.3-269.4,441.3z"/>
<path d="M-71.6,516.4c0.1-4.4,13.4-9.6,13.4-9.6s1.5,10.6-2.8,12.1C-65.4,520.3-71.6,516.4-71.6,516.4z"/>
<path d="M-171.4,559.3c1.6-7.7,5.6-14.1,5.6-14.1s4.3,10.6,3.5,14.1c-0.7,3.5-5,11.6-5,11.6S-172.4,564-171.4,559.3z"/>
<g>
	<path d="M-66.8,487.6c4.3,2.5,12.1-12.5,12.1-12.5s-18.1-4.8-23,1.8c0,0-3,2.4-3.3,5.5C-81.3,485.6-71.1,485.2-66.8,487.6z"/>
	<path d="M-74.4,468.2c2.6,3.5,11.2-5,11.2-5l0.6-13.3c0,0-13.3,6.2-12.2,14.1C-74.8,464.1-77,464.8-74.4,468.2z"/>
	<path d="M-76.9,527.8c-2.9-0.1-6.5,1.7-9.4,3.7c-0.7-2.7-1.7-4.7-1.7-4.7s-10.3,9.6-10.2,14.8c0,5.3,3.1,7.4,3.1,7.4l9-8.5
		c0.3-0.7,0.5-1.5,0.7-2.4c4.7,1.3,10.6,2.9,13.4,2.9c5.1,0.1,12.2-8.7,12.2-8.7S-70.6,528-76.9,527.8z"/>
	<path d="M-108.8,565.3c0.7,2.2,9.7,0.5,13.9,0.4c4.1-0.1,12.2-8.6,12.2-8.6s-13.9-2.7-18.9-0.4
		C-101.7,556.7-109.5,563.2-108.8,565.3z"/>
	<path d="M-115.7,559.2c0.1-0.1,0.1-0.1,0.2-0.2c2-2.1,3.8-4.2,5.7-6.3c1.8-2.1,3.6-4.2,5.3-6.3c1.7-2.1,3.3-4.2,5-6.2
		c1.6-2.1,3.1-4.1,4.6-6.1s2.9-3.9,4.3-5.8c1.4-1.9,2.7-3.7,3.9-5.5c0.3-0.4,0.5-0.8,0.8-1.1c0.3-0.4,0.6-0.8,0.9-1.3
		c1.8-2.6,3.5-5.1,5-7.3c1.5-2.3,2.9-4.3,4-6.1c0.4,0,1,0,1.6-0.3c5.5-2.1,4.7-1.8,4.7-1.8l2.5-8.8c0,0-5.7-1.4-9.4,3.7
		c0,0-1.8,4.9-0.5,6.7c-1.3,1.7-2.7,3.6-4.3,5.7c-0.2,0.2-0.3,0.4-0.5,0.6c0.5-1.7,0.7-2.9,0.7-2.9s-13.7,1.2-16.2,11.5
		c0,0-0.6,3.7,1.6,5c1,0.6,2.3,0.4,3.7-0.4c-1.6,2.1-3.3,4.2-5,6.4c-1.6,1.9-3.1,3.9-4.7,5.9c-1.5,1.9-3.1,3.8-4.6,5.7
		c0-0.5,0-1-0.1-1.6c-0.4-2.9-1.2-5.1-2-6.5c0.8-1.2,1.6-2.4,2.4-3.6c1.4-2.2,2.8-4.3,4.1-6.4c1.3-2.1,2.6-4.2,3.8-6.1
		c1.2-2,2.3-3.9,3.5-5.8c2.2-3.7,4.1-7.2,5.8-10.3c1.3-2.4,2.5-4.5,3.5-6.4c3.2-0.8,2.8-0.7,2.8-0.7l4.6-7.1c0,0-1.2-0.7-3.1-0.4
		c0.1-0.2,0.2-0.3,0.2-0.3c0-0.1,0-0.2-0.1-0.2s-0.2,0-0.2,0s-0.1,0.2-0.4,0.6c-1.2,0.3-2.5,0.9-4,2.2c0,0-4.6,6.5-1.5,6.3
		c-1,1.6-2.1,3.3-3.3,5.2c-1.9,2.9-4.1,6.3-6.4,9.9c-2.4,3.6-4.9,7.5-7.7,11.6c-1.4,2-2.8,4.1-4.2,6.3c-1.5,2.1-3,4.3-4.5,6.5
		s-3.1,4.4-4.7,6.7c-1.6,2.2-3.2,4.5-4.9,6.8c-0.2,0.3-0.4,0.6-0.6,0.8c-0.9-0.2-1.8-0.3-2.8-0.4c3.6-4.7,7.2-9.6,10.6-14.6
		c0.7-0.6,1.2-1.5,1.7-2.5c6-8.8,11.8-17.7,16.8-26.4c2.5-4.4,5-8.7,7.1-12.9c2.2-4.1,4.2-8.1,5.9-11.8c1.8-3.7,3.3-7.1,4.6-10.2
		c1.3-3.1,2.4-5.8,3.2-8c0.8-2.3,1.4-4,1.7-5.3c0.1-0.6,0.2-1.1,0.2-1.5c0-0.2,0-0.3-0.1-0.5c-0.1-0.1-0.2-0.1-0.2-0.1
		c-0.1,0-0.2,0.1-0.2,0.1c0,0.1,0.1,0.2,0.1,0.2l0,0c0,0,0,0.1,0,0.3c0,0.3-0.2,0.8-0.4,1.4c-0.4,1.2-1.1,2.9-2.2,5.1
		c-1,2.1-2.3,4.7-3.8,7.7c-0.9,1.7-1.9,3.6-2.9,5.6c0.1-1.1,0.2-2,0.1-2.8c-0.4-3.5-4.8-9.6-4.8-9.6s-4.1,9.1-2.6,14.9l3.5,4.7
		c-1.5,2.7-3.1,5.6-4.8,8.6c-0.1,0.2-0.2,0.4-0.3,0.5c-1-5.1-4.2-11.4-4.2-11.4s-1.7,1.5-3.9,3.7c0.8-1.9,1.6-3.7,2.3-5.4
		c1.5-3.5,2.7-6.5,3.7-9.1c0.6-1.4,1-2.6,1.4-3.7c0.7,0.3,1.1,0.5,1.1,0.5l7.7-11.2c0.6-6.1-9.8-14.6-9.8-14.6s-9,12.6-6.1,18.4
		c1.8,3.6,4.6,5.6,6.4,6.6c-0.5,1-1.1,2.2-1.8,3.6c-1.2,2.4-2.7,5.4-4.3,8.8c-1.7,3.4-3.6,7.2-5.7,11.3c-0.2,0.4-0.4,0.7-0.6,1.1
		c-1.5,2.1-2.7,4.2-3,6c-1,2-2.1,4.1-3.2,6.3v0.1c-0.2-0.5-0.5-1-0.8-1.5c0,0-1-1.5-2.2-2.6c-1.2-1.1-3.4,5.6-4.6,10
		c-0.7,2.6,0.6,4.4,1.8,5.5c-0.6,1.1-1.2,2.3-1.8,3.4c-1.4,2.6-2.8,5.1-4.2,7.8c-1.3,2.2-2.5,4.4-3.8,6.7c0.5-1.9,0.8-3.7,0.6-5
		c-0.3-1.9-2-4.7-3.6-7c0.7-1.6,1.4-3.2,2.1-4.8c0.6-1.6,1.2-3.2,1.9-4.7c1.5-0.9,3.6-3.7,2.7-7.1c0.3-0.9,0.7-1.8,1-2.8
		c0.5-1.5,1-2.9,1.5-4.3c2.3,1.3,4.7,1.7,4.7,1.7s5.5-8.1-0.6-14.2c0.7-2.3,1.4-4.6,2-6.6c0.9,2.3,2.2,4.4,4,6c0,0,8.3-6,3.3-13
		c-1.3-1.9-2.7-3.4-3.9-4.7c1-3.8,1.5-5.9,1.5-5.9c0-0.1,0-0.1-0.1-0.2c-0.1,0-0.2,0-0.2,0.1c0,0-0.7,1.9-2,5.3
		c-3.2-2.9-5.6-3.6-5.4-0.7c0.2,2.3,0.6,6.4,1.8,10.5c-0.1,0.3-0.2,0.6-0.3,0.9c-0.8,2.1-1.7,4.4-2.6,6.9c-0.2-0.1-0.4-0.3-0.6-0.4
		c0,0-2.2-1.4-4.5-2.4s-1.7,6.8-0.9,11.9c0.2,1.2,0.7,2.1,1.4,3c-0.6,1.7-1.3,3.3-1.9,5.1c-0.1,0.1-0.1,0.3-0.2,0.4
		c-0.5-0.6-1.1-1.2-1.8-1.8l-7-13.3c0,0-5.2,11.1-5.5,16.6c-0.2,4.3,6.4,7.6,10.2,8.8c-0.5,1.2-1,2.5-1.5,3.7
		c-0.4,1-0.9,2.1-1.3,3.1c-0.8-1-1.3-1.6-1.3-1.6s-5.6,8.2-4.4,14.7c-0.3,0.7-0.6,1.3-0.9,2c-1.3-0.1-5.2-0.2-6.2,3
		c-0.4,1.4,0.4,3.8,1.5,6.2l-1.7,3c-0.4,0.7-0.9,1.5-1.3,2.2c0-4.2-7.2-15.5-7.2-15.5s-5,6.7-6.4,15c-0.6,3.8,4.1,9.4,6.5,11.9
		c-0.2,0.3-0.4,0.6-0.6,0.9c-3,4.8-6.1,9.5-9.1,13.9c-0.3,0.5-0.6,0.9-0.9,1.4c-1.5,0.8-3,2.1-4.4,4.1c0,0,0.4,0.4,1,0.9
		c-4.5,6.4-9,12.2-13.4,17.1c-2.9,3.2-5.7,6-8.3,8.2c-2.7,2.2-5.2,3.9-7.5,5c-2.2,1.1-4.2,1.6-5.5,1.7c-0.6,0.1-1.2,0.1-1.5,0.1
		s-0.5,0-0.5,0c-0.1,0-0.1,0.1-0.1,0.1c0,0.1,0.1,0.2,0.1,0.2s0.2,0,0.5,0c0.4,0,0.9,0.1,1.5-0.1c1.4-0.1,3.3-0.6,5.7-1.6
		c2.3-1,5-2.7,7.7-4.9c2.8-2.2,5.7-4.9,8.6-8.1c4.5-4.8,9.2-10.5,13.9-16.8c0.8,0.6,1.7,1.2,2.7,1.8c-6.1,7.2-12,13.7-17.5,18.9
		c-3.4,3.2-6.6,5.9-9.7,8.1c-3.1,2.2-5.9,3.8-8.4,4.8c-1,0.4-1.9,0.7-2.8,0.9c-0.2,0-0.4-0.1-0.5-0.1c-0.7-0.1-1.1-0.3-1.5-0.4
		c-0.3-0.1-0.5-0.1-0.5-0.1c-0.1,0-0.2,0-0.2,0.1s0,0.2,0.1,0.2c0,0,0.2,0.1,0.5,0.2c0.1,0,0.3,0.1,0.5,0.2
		c-0.3-0.1-0.5-0.1-0.7-0.1c-0.3-0.1-0.5-0.1-0.5-0.1c-0.1,0-0.2,0-0.2,0.1s0,0.2,0.1,0.2c0,0,0.2,0,0.5,0.1c0.2,0,0.4,0.1,0.7,0.2
		c-0.6,0.1-1.1,0.1-1.6,0.1c-0.7,0.1-1.3-0.1-1.6-0.1c-0.4,0-0.6-0.1-0.6-0.1c-0.1,0-0.2,0-0.2,0.1s0,0.2,0.1,0.2c0,0,0.2,0,0.6,0.1
		c0.4,0,0.9,0.2,1.7,0.1c0.8,0,1.8,0,3-0.3c0.6,0.1,1.3,0.1,2.1,0c1,0,2.2,0,3.5-0.2c2.5-0.3,5.5-1.1,8.8-2.4s6.9-3,10.6-5.2
		c4.3-2.4,8.8-5.3,13.4-8.6c1.3-0.5,3.2-2,4.8-3.4c2.1-1.5,4.1-3.1,6.2-4.7c0.6-0.4,1.1-0.9,1.7-1.3c2.7,1.8,7.7,5.1,10.2,5.6
		c3.4,0.7,11.1-5.8,11.1-5.8s-5.7-5.1-9.9-6c-1.1-0.3-2.6,0-4.2,0.5c1.4-1.1,2.7-2.2,4.1-3.3c1-0.8,2-1.7,3-2.5
		c1.8,0.9,3.9,1.7,4.9,3c2.1,2.7,12.3-9,12.3-9s-3.1-1.9-6.8-2.8l3-2.7c1.1-1,2.1-2,3.1-3c0.5-0.5,1-1,1.5-1.5
		c-0.4,0.6-0.7,1.3-0.9,2c0,0-1.7,0.3-1.1,3.6c0.6,3.3,9.2-2.8,9.2-2.8l4.8-11.2C-107.9,555.3-112,556.6-115.7,559.2z M-161.9,591.8
		c-0.7-0.1-1.4-0.2-2-0.1c3.3-2.8,7.4-6.4,11.8-10.7c5.6-5.5,11.7-12.2,17.8-19.7c0.9,0.1,1.8,0.2,2.7,0.3l-2,2.2
		c-3.9,4.2-8,8.3-11.9,12.3c-4,4-8,7.9-11.9,11.6C-159,589.2-160.5,590.5-161.9,591.8z M-102.7,511.2c-1.5,2.6-3.1,5.2-4.7,7.9
		c0.2-1.6,0.2-2.7,0.2-2.7s-7.5,3.5-12.3,8.2c0.6-1.2,1.3-2.3,1.9-3.5c2.7-5.2,5.3-10.2,7.6-15c0.6-1.2,1.1-2.4,1.7-3.6
		C-107,505.7-104.8,510.2-102.7,511.2z M-144.1,547.6l1-1.7c1.7,3.1,3.6,5.6,3.6,5.6s1.9-8.4,1.1-14.1c0.4-0.9,0.9-1.7,1.3-2.6
		l5,5.8l-0.3,0.5l-1.2,1.9c-0.8,1.3-1.6,2.6-2.5,3.9c-0.9,1.3-1.8,2.5-2.7,3.8l-1.3,1.9l-1.4,1.8c-0.5,0.7-1,1.4-1.6,2.1
		c-2.9,1.2-7.8,3.4-10.9,6.4c0.2-0.3,0.4-0.5,0.5-0.8C-150.3,557.3-147.2,552.5-144.1,547.6z M-156.5,566.7
		c-0.2,1.1-0.6,3.9,1.3,5.1c0.1,0.1,0.2,0.1,0.3,0.1c-1,1.3-2.1,2.6-3.1,3.9c-1.3-0.5-2.8-0.8-4.4-0.5
		C-160.5,572.5-158.5,569.6-156.5,566.7z M-200.2,616.2c2.6-0.9,5.5-2.5,8.7-4.6c3.2-2.1,6.5-4.8,10-7.9c5.8-5.3,12-11.7,18.3-18.9
		c0.9,0.4,1.8,0.7,2.6,0.7c3.5,0,7.4-6.2,7.3-6.3c0-0.1-1.2-1.3-3-2.4c2.7-3.2,5.4-6.6,8.1-10c0,0,0-0.1,0.1-0.1
		c0.3-0.3,0.6-0.5,0.9-0.8c1.7-1.3,3.4-4,4.7-6.3l0.1-0.1c1-1.2,1.9-2.4,2.9-3.7l1.4-1.9l1.4-1.9c0.9-1.3,1.9-2.5,2.8-3.8
		c0.9-1.3,1.7-2.6,2.6-3.9l1.3-1.9l1.2-2c0.8-1.3,1.6-2.6,2.4-3.9c1.1-1.8,2.2-3.7,3.3-5.5v0.1c0,0,0.5,4.5,4.4,5.7
		c-3.2,4.8-6.5,9.5-9.8,14c-1.4,0.1-2.8,0.4-3.8,1.2l-6.9,8.5c0,0,1.3,0.2,3,0.4c-5.8,7.2-11.4,13.8-16.6,19.2
		c-4.7,4.9-9,8.9-12.4,11.9c-0.1,0-0.1,0-0.2,0.1l-4.8,4.1c-0.4,0.3-0.9,0.7-1.2,0.9c-1,0.8-1.6,1.2-1.6,1.2c-0.1,0-0.1,0.1,0,0.2
		c0,0.1,0.1,0.1,0.2,0c0,0,0,0,0.1-0.1c0.3,0.1,1.2,0.5,2.2,0.9c-3.2,2.7-6.3,5.1-9.3,7.3c-3.5,2.5-6.8,4.6-9.9,6.2
		c-3.1,1.6-5.9,2.7-8.4,3.3c-1.2,0.3-2.3,0.4-3.2,0.5c-0.1,0-0.3,0-0.4,0C-201.3,616.6-200.8,616.4-200.2,616.2z M-179,608.5
		c-3.7,2.2-7.2,4.1-10.4,5.4c-1.8,0.8-3.6,1.4-5.2,1.8c1.6-0.5,3.3-1.2,5-2.1c3.2-1.5,6.6-3.6,10.2-6c3.3-2.2,6.7-4.8,10.2-7.6
		c0.6,0.2,1.3,0.4,1.9,0.6C-171.3,603.6-175.2,606.2-179,608.5z M-123.4,563.4c-1,1-1.9,2.1-3,3.1l-3.1,3c-0.4,0.4-0.8,0.7-1.2,1.1
		c-2.3-0.2-4.5,0.3-6.3,1.8c0,0-2.8,1.7-4,4.2c-0.4,0.8,0.1,1.5,1,2.1c-0.8,0.7-1.6,1.4-2.4,2c-3.3,2.8-6.6,5.6-9.9,8.3
		c-1.1,0.7-1.9,1.1-1.9,1.1s0.1,0.1,0.2,0.2c-0.4,0.3-0.8,0.7-1.3,1c-1,0.8-1.9,1.5-2.8,2.3c-0.6-0.4-1.3-0.8-2.2-1.2
		c1.3-1.1,2.5-2.2,3.8-3.4c4-3.6,8.1-7.5,12.1-11.4c4.1-4,8.2-8,12.2-12.1l3-3.1c0.1-0.2,0.3-0.3,0.4-0.5l0,0
		c3.3,0.1,8.9-9.3,8.9-9.3s-0.3-0.1-0.9-0.3c1.8-2.2,3.4-4.4,5.1-6.6c0.8-1.1,1.5-2.1,2.3-3.2c-0.7,3.3-1.1,6.9-0.3,9.8
		c-1.4,1.6-2.7,3.3-4.2,4.8C-119.5,559.2-121.4,561.4-123.4,563.4z"/>
	<path d="M-115.7,580c0,0-1.6,3-0.6,4.4c1,1.4,3.9-0.4,7.1-1.8c3.2-1.4,8.3-10.2,8.3-10.2S-110.5,571.6-115.7,580z"/>
	<path d="M-132.3,482.2c2.4,0.5,7-4.3,7.1-4.4c0-0.1-2.7-9.1-11.4-1.1C-136.7,476.7-134.7,481.8-132.3,482.2z"/>
	<path d="M-147,531.1c1.2,0.2,7.3-4.2,4.1-10.8l-0.3-12.2c0,0-7.2,8.7-9.2,13.4C-154.4,526.3-148.1,530.9-147,531.1z"/>
</g>
</svg>
