<?xml version="1.0" encoding="utf-8"?>
<!-- Generator: Adobe Illustrator 19.1.0, SVG Export Plug-In . SVG Version: 6.00 Build 0)  -->
<svg version="1.1" id="Layer_1" xmlns="http://www.w3.org/2000/svg" xmlns:xlink="http://www.w3.org/1999/xlink" x="0px" y="0px"
	 viewBox="-323 125.2 311.8 311.8" style="enable-background:new -323 125.2 311.8 311.8;" xml:space="preserve">
<style type="text/css">
	.st0{opacity:0.6;}
</style>
<g class="st0">
	<path d="M-167.1,125.2c-86.1,0-155.9,69.8-155.9,155.9S-253.2,437-167.1,437s155.9-69.8,155.9-155.9S-81,125.2-167.1,125.2z
		 M-167.1,427.9c-81,0-146.7-65.7-146.7-146.7s65.7-146.7,146.7-146.7s146.7,65.7,146.7,146.7C-20.3,362.2-86,427.9-167.1,427.9z"/>
	<path d="M-106,237.1h-15.6l9.8-20.3c2.3-4.7,0.3-10.5-4.5-12.8c-4.7-2.3-10.5-0.3-12.8,4.5l-13.8,28.6h-10.2
		c-3.1-3.2-7.5-5.3-12.4-5.3c2.2-2.2,3.6-5.3,3.6-8.6c0-6.8-5.7-12.4-12.7-12.4s-12.7,5.6-12.7,12.4c0,1,0.1,2,0.4,3
		c-2-1-4.3-1.6-6.7-1.6c-7.5,0-13.7,5.5-14.4,12.5h-7.4V237c-2.3,0-4.4,0.8-6,2.2c-0.3,0.3-0.6,0.5-0.8,0.9c-0.9-3.1-1.7-6-2.4-8.5
		c-1.4-4.6-2.4-8-3.1-10c-0.6-1.6-1.2-3.4-2-5.1c-0.6-1.3-1.3-2.6-2.2-3.9c-1.3-1.9-3.1-3.6-5.5-4.8c-2.4-1.2-5.3-1.9-8.9-1.9h-0.2
		c-5.9,0-10.1,0.8-13.2,2.2c-1.5,0.7-2.8,1.7-3.7,2.9c-0.9,1.2-1.4,2.7-1.4,4.2c0,1.4,0.4,2.8,1.1,4.1c0.7,1.3,1.5,2.6,2.6,3.8
		c0.9,1,2.5,1.1,3.5,0.2c0.7-1,0.8-2.5-0.1-3.6c-0.9-1-1.5-1.9-1.9-2.7c-0.4-0.8-0.5-1.4-0.5-1.9s0.1-0.8,0.4-1.2
		c0.2-0.3,0.6-0.6,1.2-1c0.9-0.5,2.3-1.1,4.3-1.5c2-0.4,4.5-0.6,7.5-0.6h0.2c2.6,0,4.6,0.4,6.1,1.1c1.1,0.5,2,1.1,2.8,1.9
		c1.2,1.1,2.1,2.5,2.9,4.2c0.8,1.6,1.4,3.5,2.1,5.3c0.6,1.8,1.7,5.1,3,9.7c4,13.8,10.9,39,19.3,70.5c2,7.4,2.8,11,3.3,13.4
		c0.2,1.2,0.4,2.2,0.6,3.2s0.4,2.1,0.8,3.5c0.4,1.6,1.1,2.9,1.9,4c0.7,0.8,1.4,1.4,2.3,1.9c1.2,0.7,2.5,1.1,3.8,1.3
		c1.2,0.2,2.4,0.3,3.5,0.3c0.3,0,0.7,0,1.2,0c4,0,11.7-0.3,21-0.6c9.2-0.3,20-0.6,30-0.6c6.9,0,13.5,0.2,18.9,0.6
		c4.2,0.3,7.5,1.4,9.6,2.7c1.1,0.6,1.8,1.3,2.2,1.8c0.2,0.3,0.3,0.5,0.4,0.6l0.1,0.1c-0.1,0.1-0.4,0.3-1.1,0.5
		c-0.7,0.2-1.7,0.3-3,0.3c-1.4,0-2.5,1.1-2.5,2.5c0,1.4,1.1,2.5,2.5,2.5c2.5,0,4.5-0.4,6.1-1.2c0.8-0.4,1.5-1,2.1-1.8
		c0.5-0.8,0.8-1.7,0.8-2.7c0-0.8-0.2-1.5-0.4-2.1c-0.5-1.2-1.3-2.1-2.2-3c-1.5-1.3-3.4-2.5-5.8-3.4c-2.4-0.9-5.2-1.5-8.4-1.8
		c-5.6-0.4-12.2-0.6-19.3-0.6c-10.1,0-20.9,0.3-30.1,0.6c-9.3,0.3-17,0.6-20.8,0.6c-0.4,0-0.7,0-1,0c-0.9,0-1.8-0.1-2.5-0.2
		c-1.2-0.2-2.1-0.5-2.7-0.9c-0.3-0.2-0.6-0.5-0.9-0.9c-0.3-0.4-0.5-0.9-0.7-1.7c-0.3-1.3-0.5-2.3-0.7-3.2c-0.3-1.4-0.5-2.9-1.1-5.4
		c-0.4-2-1.1-4.7-2.1-8.6c0.9,0.2,1.9,0.4,2.8,0.4l0,0l78.6,1.7c1.9,0,3.7-0.6,5.2-1.6s2.6-2.5,3.2-4.2l17.1-54.1
		c0.2-0.7,0.3-1.5,0.3-2.2c0-2.3-1-4.3-2.6-5.8C-101.5,238-103.6,237.1-106,237.1z M-121.4,242l-2.4,16.7h-8.3l8.1-16.7H-121.4z
		 M-126.9,280.5h-12l0.5-8.6l4-8.2h10L-126.9,280.5z M-119.4,263.7h11.4l-5.3,16.8h-8.5L-119.4,263.7z M-155.8,263.7l-1.5,3.1v-3.1
		H-155.8z M-170.4,263.7c1.5,0.5,3.2,0.7,4.9,0.7c1.1,0,2.2-0.1,3.2-0.3v13.1l-1.6,3.3h-11.7l-1.7-16.8H-170.4L-170.4,263.7z
		 M-193.6,252.2c3.7,0,7.1-1.3,9.6-3.5l1,10h-13.9l-1-7.1C-196.5,252-195.1,252.2-193.6,252.2z M-182.4,263.7l1.7,16.8h-13.1
		l-2.3-16.8H-182.4z M-198.9,280.5H-210l-4.3-16.8h13L-198.9,280.5z M-205.6,298.1v-0.3l-3.1-12.3h10.5l2.1,15.3l-5.5-0.1
		c-1.2,0-2.4-0.4-3.1-0.9c-0.3-0.2-0.6-0.5-0.7-0.8C-205.5,298.7-205.6,298.5-205.6,298.1z M-193.1,285.5h12.9l1.6,15.7l-12.4-0.3
		L-193.1,285.5z M-175.1,285.5h8.8l-2,4.1c-2,4.2-0.7,9.2,3,11.9l-8.2-0.2L-175.1,285.5z M-151,297.9l6-12.4h0.8l-0.9,16.4l-9.2-0.2
		C-152.9,300.8-151.8,299.5-151,297.9z M-139.2,285.5h11.6l-2.4,16.7l-10.1-0.2L-139.2,285.5z M-145.3,242l-3.4,6.9
		c0-0.3,0-0.6,0-0.8c0-2.2-0.4-4.2-1.2-6.1H-145.3z M-179.7,234.6c1.1,0.5,2.3,0.8,3.5,0.9c-0.6,0.5-1.2,1-1.7,1.6h-1.2
		C-179.3,236.2-179.4,235.4-179.7,234.6z M-215.4,242h7.8c0.7,2.6,2.2,4.8,4.2,6.6l1.4,10.1h-13.5l-3.5-13.8c0-0.8,0.3-1.4,0.9-2
		C-217.5,242.3-216.6,242-215.4,242z M-119.5,300c-0.2,0.7-0.7,1.2-1.3,1.7c-0.6,0.4-1.4,0.7-2.3,0.7h-1.8l2.4-16.9h7.6L-119.5,300z
		 M-102.4,245.9l-4,12.8h-12.3l2.4-16.7h10.3c1.1,0,2.1,0.4,2.7,1c0.7,0.6,1,1.3,1,2.1C-102.3,245.3-102.3,245.6-102.4,245.9z"/>
	<ellipse cx="-184.3" cy="347.6" rx="11.6" ry="11.5"/>
	<ellipse cx="-139.4" cy="347.6" rx="11.6" ry="11.5"/>
</g>
</svg>
