<?xml version="1.0" encoding="utf-8"?>
<!-- Generator: Adobe Illustrator 19.1.0, SVG Export Plug-In . SVG Version: 6.00 Build 0)  -->
<svg version="1.1" id="Layer_1" opacity="0.6" xmlns="http://www.w3.org/2000/svg" xmlns:xlink="http://www.w3.org/1999/xlink"
	 x="0px" y="0px" viewBox="-343 345.2 311.8 311.8" style="enable-background:new -343 345.2 311.8 311.8;" xml:space="preserve">
<g id="public_holidays">
	<path d="M-187.1,345.2c-86.1,0-155.9,69.8-155.9,155.9S-273.2,657-187.1,657s155.9-69.8,155.9-155.9S-101,345.2-187.1,345.2z
		 M-187.1,647.9c-81,0-146.7-65.7-146.7-146.7s65.7-146.7,146.7-146.7s146.7,65.7,146.7,146.7C-40.3,582.2-106,647.9-187.1,647.9z"
		/>
</g>
<path d="M-118.7,413.9h-132.8c-6.6,0-12,5.4-12,12v6.3c0,6.6,5.4,12,12,12h10.9c-0.9,4-2.3,8.1-4.5,10c-4.8,4.1,10.7-3.4,14.9-9.2
	c0.2-0.3,0.4-0.5,0.5-0.8h31.2c0.6,1.2,1.3,2.5,2.3,3.9c6.6,10.2,6.8,9.9,6.3,8.7c-0.4-1-0.7-10-0.6-12.6h44.1
	c0.1,0.1,0.3,0.2,0.4,0.3c8.2,6.6,19.8,16.5,11.6,4.8c-1.3-1.8-2-3.5-2.3-5.2h17.9c6.6,0,12-5.4,12-12v-6.3
	C-106.7,419.3-112.1,413.9-118.7,413.9z"/>
<circle cx="-245.4" cy="491.1" r="12.1"/>
<circle cx="-190.3" cy="481" r="12.1"/>
<circle cx="-135.4" cy="492.2" r="12.1"/>
<path d="M-98.8,495.9c-1.6-0.4-3.2,0.6-3.7,2.2c-2,7.9-7.5,12-11.8,14.2c-3.6,1.8-7.2,2.6-10.3,2.7c-1.9-4-6.1-6.8-10.8-6.8h-0.2
	c-4.7,0-8.8,2.8-10.8,6.7c-1.5,0.2-3.1,0.2-4.6,0.2c-8.8-0.4-16.4-3.9-18.9-6.2c-9.8-9.2-18.7-16.2-28.9-9.1
	c-5.2,3.6-6.8,5.6-8.1,7.1c-1.1,1.4-2,2.5-6.1,4.9c-5.5,3.3-13.6,3.6-21.3,3.1c-1.7-4.5-6.1-7.7-11.2-7.7h-0.2c-4,0-7.6,2-9.8,5.1
	c-1.1-0.1-2.2-0.2-3.4-0.2c-8.3-0.5-16.9-0.9-21.5-17.8c-0.4-1.6-2.1-2.5-3.7-2.1c-1.6,0.4-2.5,2.1-2.1,3.7
	c5.8,21,18.1,21.7,27,22.2c0.5,0,1.1,0.1,1.6,0.1c0,0.3-0.1,0.7-0.1,1v26.2c0,1.2,0.2,2.4,0.5,3.5l-4.9,42.5c-0.2,1.7,1,3.2,2.7,3.4
	l0.9,0.1c1.7,0.2,3.2-1,3.4-2.7l4.1-36c1.6,0.8,3.4,1.2,5.3,1.2h0.2c1.8,0,3.5-0.4,5-1.1l5.5,35.9c0.3,1.7,1.8,2.8,3.5,2.6l0.9-0.1
	c1.7-0.3,2.8-1.8,2.6-3.5l-6.4-41.2c0.6-1.4,0.9-3,0.9-4.6V521c8.2,0.4,17-0.1,23.6-4c4.5-2.7,6-4.3,7.3-5.8v24.1
	c0,1.3,0.2,2.6,0.6,3.8l-1.3,42.1c-0.1,1.7,1.3,3.1,3,3.1h0.9c1.7,0.1,3.1-1.3,3.1-3l1.1-35c1.4,0.6,3,0.9,4.6,0.9h0.2
	c1.8,0,3.6-0.4,5.2-1.2v34.2c0,1.7,1.4,3.1,3.1,3.1h0.9c1.7,0,3.1-1.4,3.1-3.1v-43.7c0-0.3-0.1-0.6-0.2-0.9c0-0.1,0-0.2,0-0.3v-25.8
	c1.3,1.1,2.7,2.4,4.3,3.9c3.7,3.5,12.9,7.4,22.7,7.8c0.5,0,0.9,0,1.4,0c0.7,0,1.5,0,2.2-0.1v25.4c0,1.7,0.4,3.3,1,4.8V593
	c0,1.7,1.4,3.1,3.1,3.1h0.9c1.7,0,3.1-1.4,3.1-3.1v-35.3c1.3,0.4,2.6,0.7,4,0.7h0.2c2.1,0,4.1-0.5,5.8-1.5l7.8,35.3
	c0.4,1.6,2,2.7,3.6,2.3l0.9-0.2c1.6-0.4,2.7-2,2.3-3.6l-9-40.6c0.4-1.1,0.6-2.4,0.6-3.6V521c3.8-0.3,8-1.4,11.7-3.3
	c7.6-3.8,12.9-10.2,14.9-18C-96.2,498-97.2,496.3-98.8,495.9z"/>
</svg>
