<?xml version="1.0" encoding="utf-8"?>
<!-- Generator: Adobe Illustrator 19.1.0, SVG Export Plug-In . SVG Version: 6.00 Build 0)  -->
<svg version="1.1" id="Layer_1" xmlns="http://www.w3.org/2000/svg" xmlns:xlink="http://www.w3.org/1999/xlink" x="0px" y="0px"
	 viewBox="-323 125.2 311.8 311.8" style="enable-background:new -323 125.2 311.8 311.8;" xml:space="preserve">
<style type="text/css">
	.st0{opacity:0.6;}
</style>
<g id="health" class="st0">
	<path d="M-167.1,125.2c-86.1,0-155.9,69.8-155.9,155.9S-253.2,437-167.1,437s155.9-69.8,155.9-155.9S-81,125.2-167.1,125.2z
		 M-167.1,427.9c-81,0-146.7-65.7-146.7-146.7s65.7-146.7,146.7-146.7s146.7,65.7,146.7,146.7C-20.3,362.2-86,427.9-167.1,427.9z"/>
	<path d="M-257,287.4l17,31.6c0.6,1.1,1.5,2.1,2.5,2.9l28.7,20.9c2.3,1.6,3.7,4.2,3.9,7l2.1,31.4l26,15.7l-4.4-40.3
		c-0.1-1.3,0-2.6,0.5-3.8l3-15.9c0.9-2.1,0.7-5.2,0-7.4l-2.3-11.3c-0.3-1.6-1.1-3.1-2.1-4.4l-13.1-11.3c-0.5-0.5-1-1-1.4-1.6
		c-1.8-2.5-7.5-9.7-11.6-7c-4.2,2.7,0.2,8,1.6,9.5c0.3,0.3,0.5,0.6,0.8,1l6.6,9.5c1.3,1.9-0.5,4.3-2.7,3.6l-11.1-3.6
		c-0.3-0.1-2.2-0.7-2.5-0.9l-11.9-2.9c-2.4-0.6-4.4-2-5.8-4l-14.4-20.7c0,0-6.7-12.9-12.1-9.8C-265.2,278.5-257,287.4-257,287.4z"/>
	<path d="M-77.2,287.4L-94.3,319c-0.6,1.1-1.5,2.1-2.5,2.9l-28.7,20.9c-2.3,1.6-3.7,4.2-3.9,7l-2.1,31.4l-26,15.7l4.4-40.3
		c0.1-1.3,0-2.6-0.5-3.8l-3-15.9c-0.9-2.1-0.7-5.2,0-7.4l2.3-11.3c0.3-1.6,1.1-3.1,2.1-4.4l13.1-11.3c0.5-0.5,1-1,1.4-1.6
		c1.8-2.5,7.5-9.7,11.6-7c4.2,2.7-0.2,8-1.6,9.5c-0.3,0.3-0.5,0.6-0.8,1l-6.6,9.5c-1.3,1.9,0.5,4.3,2.7,3.6l11.1-3.6
		c0.3-0.1,2.2-0.7,2.5-0.9l11.9-2.9c2.4-0.6,4.4-2,5.8-4l14.4-20.7c0,0,6.7-12.9,12.1-9.8C-68.9,278.5-77.2,287.4-77.2,287.4z"/>
	<path d="M-114.8,187.7c-17.8-8.2-40.6,2.7-52.3,24.5c-11.7-21.8-34.5-32.8-52.3-24.5c-17.6,8-24.2,31.9-15.7,54.6h25.8l16.5-42.5
		l20.5,68.5l9.8-25.9h23.7c1.1-3,3.9-5.2,7.3-5.2c4.3,0,7.8,3.5,7.8,7.8c0,4.3-3.5,7.8-7.8,7.8c-3.3,0-6.1-2-7.2-4.9h-20l-14.3,37.5
		l-20.5-68.7l-12.1,31.1h-27.2c11.9,23.5,63.9,52.3,65.7,53.2v0.1c0,0,55.1-30.2,66.2-54.2C-89.8,222.8-96,196.3-114.8,187.7z"/>
</g>
</svg>
