<?xml version="1.0" encoding="utf-8"?>
<!-- Generator: Adobe Illustrator 19.1.0, SVG Export Plug-In . SVG Version: 6.00 Build 0)  -->
<svg version="1.1" id="Layer_1" opacity="0.6" xmlns="http://www.w3.org/2000/svg" xmlns:xlink="http://www.w3.org/1999/xlink"
	 x="0px" y="0px" viewBox="-343 345.2 311.8 311.8" style="enable-background:new -343 345.2 311.8 311.8;" xml:space="preserve">
<g id="public_holidays">
	<path d="M-212.5,585l15.9-43c11.9-0.1,31-26.8,44.3-62.9c1.1-3.1,2.2-6.2,3.2-9.2c-0.2,0.3-0.3,0.5-0.5,0.8
		c0.1-0.4,0.2-0.7,0.3-1.1c-0.5-5-7.7-11.2-17.7-14.9c-10-3.7-19.6-3.6-23.1-0.2c-0.2,0.3-0.3,0.7-0.5,1c0-0.3,0.1-0.6,0.1-0.9
		c-1.2,3-2.4,6-3.6,9.1c-13.3,36.1-16.2,68.8-7.3,76.6l-15.9,43c-9-3.2-16.6-4.8-19-4.1c-0.3,0.3-0.5,0.7-0.7,1
		c0.7,2.1,9,6.6,19.6,10.5c10.6,3.9,19.8,5.9,21.7,4.8c0.1-0.4,0.1-0.8,0.1-1.2C-196.8,592.2-203.6,588.5-212.5,585z M-189.8,462.7
		c2.8,3.9,8.6,7.9,15.9,10.6c7.3,2.7,14.3,3.4,18.9,2.3c-5.4,3.1-12.9,3.6-20.1,1C-182.3,474-187.7,468.6-189.8,462.7z"/>
	<path d="M-91.2,570.1l-16.1-43c8.9-7.8,5.9-40.5-7.6-76.5c-1.2-3.1-2.4-6.1-3.6-9.1c0.1,0.3,0.1,0.6,0.2,0.9
		c-0.2-0.3-0.3-0.7-0.5-1c-3.6-3.4-13.1-3.5-23.1,0.3s-17.2,10-17.6,15c0.1,0.4,0.2,0.7,0.3,1.1c-0.2-0.3-0.3-0.5-0.5-0.8
		c1,3,2.1,6.1,3.2,9.2c13.5,36,32.7,62.6,44.6,62.6l16.1,43c-8.9,3.5-15.7,7.3-17.1,9.3c0,0.4,0.1,0.8,0.1,1.2
		c1.9,1.1,11.1-0.9,21.7-4.9s18.8-8.5,19.6-10.6c-0.2-0.4-0.4-0.7-0.7-1C-74.6,565.3-82.2,566.9-91.2,570.1z M-154,462.8
		c4.7,1.1,11.7,0.4,18.9-2.3c7.2-2.7,13-6.8,15.8-10.7c-2.1,5.8-7.3,11.2-14.6,13.9C-141.2,466.4-148.6,465.8-154,462.8z"/>
	<g>
		<path d="M-200.5,405h-5.6c0.4-0.5,0.6-1.1,0.6-1.8v-4c0-1.5-1.2-2.8-2.8-2.8c-1.6,0-2.8,1.2-2.8,2.8v4c0,0.7,0.2,1.3,0.6,1.8h-20
			c0.4-0.5,0.6-1.1,0.6-1.8v-4c0-1.5-1.2-2.8-2.8-2.8c-1.6,0-2.8,1.2-2.8,2.8v4c0,0.7,0.2,1.3,0.6,1.8h-19.3
			c0.4-0.5,0.6-1.1,0.6-1.8v-4c0-1.5-1.2-2.8-2.8-2.8c-1.6,0-2.8,1.2-2.8,2.8v4c0,0.7,0.2,1.3,0.6,1.8h-6.4
			c-7.3,0-13.3,5.9-13.3,13.3v50c0,7.3,5.9,13.3,13.3,13.3h64c7.3,0,13.3-5.9,13.3-13.3v-50C-187.3,410.9-193.2,405-200.5,405z
			 M-193,461.7c0,7.3-5.9,13.3-13.3,13.3h-53.3c-7.3,0-13.3-5.9-13.3-13.3v-39c0-7.3,5.9-13.3,13.3-13.3h53.3
			c7.3,0,13.3,5.9,13.3,13.3C-193,422.7-193,461.7-193,461.7z"/>
		<path d="M-239.3,441.8c0.8,0.7,1.5,1.6,2,2.7c0.5,1.1,0.8,2.5,0.8,4.2s-0.3,3.2-0.9,4.7c-0.6,1.4-1.5,2.6-2.6,3.7
			c-1.2,1.2-2.7,2-4.4,2.6c-1.7,0.6-3.5,0.8-5.5,0.8c-2.1,0-4.1-0.2-6.1-0.7s-3.6-1-4.9-1.6V453h0.4c1.4,0.9,3.1,1.7,5,2.3
			c1.9,0.6,3.8,0.9,5.5,0.9c1,0,2.2-0.2,3.3-0.5c1.2-0.3,2.1-0.9,2.9-1.5c0.8-0.7,1.3-1.5,1.7-2.4c0.4-0.9,0.6-2,0.6-3.3
			s-0.2-2.4-0.6-3.3c-0.4-0.9-1-1.6-1.8-2.1c-0.7-0.5-1.7-0.9-2.7-1.1c-1.1-0.2-2.2-0.3-3.4-0.3h-2.2v-4.1h1.7c2.5,0,4.5-0.5,6-1.6
			c1.5-1.1,2.3-2.6,2.3-4.6c0-0.9-0.2-1.7-0.6-2.4c-0.4-0.7-0.9-1.2-1.6-1.7c-0.7-0.4-1.5-0.7-2.3-0.9c-0.8-0.2-1.7-0.2-2.8-0.2
			c-1.6,0-3.3,0.3-5,0.8c-1.8,0.6-3.5,1.4-5,2.4h-0.2v-5.2c1.2-0.6,2.8-1.1,4.7-1.6c2-0.5,3.9-0.7,5.7-0.7c1.8,0,3.4,0.2,4.8,0.5
			c1.4,0.3,2.6,0.9,3.7,1.6c1.2,0.8,2.1,1.8,2.7,2.9c0.6,1.1,0.9,2.4,0.9,4c0,2.1-0.7,3.9-2.2,5.4s-3.2,2.5-5.1,2.9v0.3
			c0.8,0.1,1.7,0.4,2.7,0.8C-240.9,440.6-240,441.2-239.3,441.8z"/>
		<path d="M-205.8,459.6h-20.1v-3.8h7.7V431h-7.7v-3.4c1,0,2.2-0.1,3.4-0.3c1.2-0.2,2.1-0.4,2.7-0.8c0.8-0.4,1.4-0.9,1.8-1.6
			c0.4-0.6,0.7-1.5,0.8-2.6h3.9v33.4h7.6v3.9H-205.8z"/>
	</g>
	<path d="M-187.1,345.2c-86.1,0-155.9,69.8-155.9,155.9S-273.2,657-187.1,657s155.9-69.8,155.9-155.9S-101,345.2-187.1,345.2z
		 M-187.1,647.9c-81,0-146.7-65.7-146.7-146.7s65.7-146.7,146.7-146.7s146.7,65.7,146.7,146.7C-40.3,582.2-106,647.9-187.1,647.9z"
		/>
</g>
<path d="M-313.9,492.7c0,0,0.4-0.2,1.1-0.7c0.7-0.4,1.8-1.1,3.4-1.8c3-1.4,7.6-3.2,13.8-3.9c3.1-0.3,6.6-0.4,10.3,0.1
	c3.7,0.5,7.8,1.4,11.8,3.2c2,0.9,4,2,5.9,3.5c0.9,0.7,1.8,1.6,2.6,2.5c0.4,0.5,0.8,1,1.1,1.6l0.1,0.2l0.1,0.1l0.1,0.2l0.2,0.4
	l0.2,0.4c0.1,0.2,0.1,0.4,0.1,0.6c0.3,1.5,0.1,2.9-0.4,4.2c-0.5,1.3-1.3,2.4-2.1,3.5c-1.7,2.1-3.7,3.9-5.8,5.5
	c-4.3,3.3-9.3,6-14.8,8c-2.8,1-5.7,1.8-8.8,2.1c-1.6,0.1-3.3,0.1-5-0.6l-0.3-0.1l-0.3-0.2l-0.5-0.3c-0.4-0.3-0.9-0.6-1.2-0.9
	c-0.7-0.7-1.3-1.8-1.4-2.9c-0.1-1.1,0.1-2.1,0.5-2.9c0.4-0.9,0.8-1.6,1.3-2.3c1-1.4,2.2-2.5,3.4-3.6c2.5-2.1,5.2-4,8.2-5.5
	c0.7-0.4,1.5-0.7,2.3-1.1c0.4-0.2,0.8-0.3,1.2-0.5l1.1-0.4l1.1-0.4l1.2-0.4c0.8-0.3,1.6-0.5,2.4-0.7c3.2-0.9,6.6-1.4,10-1.7
	c3.4-0.2,6.9-0.1,10.4,0.4c3.5,0.6,7,1.6,10.2,3.3c1.6,0.9,3.2,1.9,4.6,3.3c1.4,1.3,2.6,3,3.4,4.9c0.8,1.9,1,4.1,0.6,6.1
	c-0.4,2-1.3,3.9-2.3,5.5c-3.9,6.1-9,11.3-14.5,15.9c-5.5,4.6-11.5,8.7-17.9,12c-3.2,1.7-6.6,3.1-10.2,4.2c-0.9,0.2-1.8,0.5-2.8,0.6
	c-1,0.1-2,0.2-3.3,0l-0.5-0.1l-0.2-0.1c-0.1,0-0.1,0-0.3-0.1l-0.6-0.3c-0.3-0.1-0.6-0.3-0.9-0.5c-0.3-0.2-0.5-0.4-0.8-0.7
	c-0.5-0.6-1-1.3-1.1-2c-0.2-0.8-0.1-1.5,0-2.1c0.3-1.3,0.8-2.2,1.3-3.1c0.6-0.9,1.2-1.6,1.8-2.3c1.3-1.4,2.6-2.7,4-3.8
	c2.8-2.3,5.7-4.4,8.7-6.3c6-3.8,12.2-7.1,18.6-9.7c3.2-1.3,6.5-2.5,9.9-3.3s6.8-1.5,10.6-1.1c1.8,0.2,3.9,0.7,5.5,2.2
	c0.8,0.7,1.4,1.7,1.8,2.7l0.2,0.7l0.1,0.2c0,0.1,0.1,0.3,0.1,0.2l0.1,0.3l0.2,1.2c0.2,1.8,0.3,3.6,0.1,5.3c0,0.9-0.2,1.7-0.3,2.5
	c-0.2,0.8-0.3,1.7-0.5,2.5c-1.6,6.5-4.7,12.2-8.3,17.3c-1.8,2.5-3.8,4.9-5.9,7.1c-2.2,2.1-4.5,4.1-7.2,5.5c-1.4,0.7-3,1.3-4.9,0.9
	c-0.2,0-0.5-0.1-0.7-0.2l-0.3-0.1c-0.1,0,0,0-0.2-0.1l-0.1-0.1l-0.9-0.6c-0.3-0.3-0.7-0.6-1-0.9s-0.5-0.7-0.8-1
	c-0.9-1.5-1.1-3.3-0.8-4.8s0.9-2.9,1.6-4.1c1.4-2.4,3.3-4.4,5.2-6.2c1.9-1.8,3.9-3.3,6-4.6c4.2-2.6,8.5-4.6,12.8-5.6
	s8.6-1.2,12.3,0.4c1.8,0.8,3.3,2.1,4.2,3.7c0.9,1.6,1.2,3.3,1.4,4.8c0.2,3.2-0.3,5.9-0.7,8.3c-0.5,2.4-1,4.3-1.3,6
	c-0.4,1.6-0.6,2.9-0.7,3.7c0,0.4-0.1,0.7-0.1,1c0,0.2,0,0.3,0,0.3s0-0.1,0-0.3s0-0.5,0-1c0.1-0.9,0.2-2.1,0.5-3.8
	c0.3-1.6,0.7-3.6,1.1-6c0.3-2.4,0.7-5.1,0.4-8.1c-0.2-1.5-0.6-3.1-1.4-4.4c-0.8-1.4-2.2-2.5-3.8-3.1c-0.4-0.2-0.8-0.3-1.3-0.4
	c-0.4-0.1-0.9-0.2-1.3-0.3c-0.5-0.1-1-0.1-1.4-0.2c-0.5,0-1,0-1.4,0c-1.9,0-4,0.4-6,0.9c-4.1,1.1-8.2,3.1-12.1,5.8
	c-2,1.3-3.9,2.8-5.7,4.5s-3.5,3.6-4.7,5.8c-0.6,1.1-1.1,2.2-1.3,3.4c-0.2,1.1,0,2.2,0.6,3.1c0.2,0.2,0.3,0.4,0.5,0.6
	c0.2,0.2,0.4,0.3,0.6,0.5l0.9,0.6l0.1,0.1c-0.1-0.1,0,0,0,0h0.1c0.1,0,0.2,0.1,0.3,0.1c0.9,0.2,2.1-0.2,3.3-0.8
	c2.3-1.2,4.5-3.1,6.4-5.1c2-2.1,3.8-4.4,5.5-6.8c3.3-4.9,6.1-10.4,7.5-16.4c0.2-0.7,0.3-1.5,0.4-2.2c0.1-0.8,0.2-1.5,0.2-2.3
	l0.1-1.1v-1.1c0-0.8-0.1-1.4-0.2-2.2l-0.2-1.2l-0.1-0.3c0-0.1,0,0,0-0.1v-0.1l-0.1-0.4c-0.2-0.5-0.5-1-0.9-1.3
	c-0.8-0.7-2.1-1.2-3.6-1.3c-2.9-0.3-6.1,0.3-9.3,1.2c-3.1,0.8-6.3,2-9.4,3.3c-6.2,2.6-12.2,5.8-18,9.5c-2.9,1.9-5.7,3.8-8.2,6
	c-1.3,1.1-2.5,2.2-3.6,3.5c-0.5,0.6-1,1.2-1.4,1.9c-0.4,0.6-0.7,1.3-0.8,1.7c0,0.2,0,0.4,0,0.5c0,0.1,0.1,0.1,0.1,0.2
	c0.1,0,0.1,0.1,0.2,0.2c0.1,0,0.1,0.1,0.2,0.1l0.6,0.3c-0.2-0.1,0,0,0,0h0.1h0.2c0.5,0.1,1.3,0.1,2-0.1c0.8-0.1,1.5-0.3,2.3-0.5
	c3.2-0.9,6.3-2.3,9.4-3.9c6.1-3.2,11.9-7.1,17.2-11.5c5.3-4.4,10.1-9.4,13.8-15c0.9-1.4,1.5-2.6,1.8-4c0.3-1.4,0.1-2.8-0.4-4.1
	c-1-2.6-3.4-4.8-6.2-6.3c-2.8-1.5-5.9-2.5-9-3c-3.2-0.6-6.4-0.7-9.6-0.5c-3.2,0.2-6.3,0.7-9.4,1.5c-0.8,0.2-1.5,0.4-2.3,0.6
	l-1.1,0.3l-1.1,0.4l-1.1,0.4l-1,0.4c-0.7,0.3-1.4,0.6-2.1,0.9c-2.7,1.3-5.3,3-7.6,4.9c-1.1,1-2.2,2-3,3.1c-0.8,1.1-1.4,2.3-1.3,3.2
	c0,0.4,0.2,0.8,0.5,1.1c0.2,0.2,0.4,0.3,0.6,0.5c0.1,0.1,0.3,0.2,0.5,0.3l0.1,0.1c0,0,0.2,0.1,0.1,0l0.2,0.1
	c1.1,0.4,2.4,0.6,3.8,0.5c2.7-0.1,5.5-0.9,8.1-1.8c5.3-1.8,10.1-4.4,14.3-7.4c2.1-1.5,4-3.2,5.5-5c0.8-0.9,1.4-1.9,1.8-2.9
	s0.6-2.1,0.4-3c0-0.1,0-0.2,0-0.3l-0.2-0.4l-0.2-0.4c0-0.1,0,0,0,0l-0.1-0.1l-0.1-0.2c-0.3-0.5-0.6-0.9-0.9-1.4
	c-0.7-0.9-1.5-1.7-2.3-2.4c-1.7-1.4-3.5-2.5-5.4-3.5c-3.8-1.8-7.7-2.9-11.3-3.4c-3.6-0.5-7.1-0.6-10.1-0.4c-6.1,0.5-10.8,2-13.8,3.3
	c-1.5,0.6-2.7,1.2-3.4,1.6C-313.5,492.5-313.9,492.7-313.9,492.7z"/>
<path d="M-159.6,372.4c0,0,0.6,0.9,1.5,2.7c0.9,1.8,2.2,4.4,3.5,7.9c1.2,3.5,2.5,7.9,3.1,13.2c0.3,2.6,0.5,5.4-0.1,8.5
	c-0.2,0.8-0.4,1.5-0.8,2.3c-0.2,0.4-0.5,0.8-0.9,1.1c-0.5,0.4-1.1,0.6-1.7,0.6c-1.1,0-2-0.5-2.7-0.9c-0.7-0.5-1.4-1-2-1.6
	c-2.5-2.3-4.6-5-6.5-7.9c-1.9-2.9-3.8-6.1-5.1-9.7c-0.3-0.9-0.6-1.8-0.8-2.9c-0.1-0.5-0.2-1-0.2-1.6c0-0.3,0-0.6,0.1-0.9V383v-0.2
	c0-0.1,0.1-0.3,0.1-0.5c0.2-0.6,0.4-1.3,1.3-2c0.4-0.3,1.1-0.5,1.6-0.4c0.5,0,0.9,0.2,1.2,0.3c1.3,0.6,2,1.4,2.7,2.2
	c1.4,1.6,2.5,3.3,3.5,5.1c0.5,0.9,1,1.8,1.4,2.8c0.4,0.9,0.8,1.9,1.1,2.9c1.4,3.9,2.3,8,2.7,12.3c0.2,2.1,0.2,4.3,0,6.5
	c-0.2,2.2-0.6,4.5-1.8,6.7c-0.6,1.1-1.5,2.4-3.2,3c-0.8,0.3-1.8,0.4-2.6,0.2c-0.8-0.2-1.5-0.5-2.1-0.8c-0.2-0.1-0.3-0.2-0.4-0.3
	l-0.4-0.3l-0.6-0.5c-0.4-0.4-0.9-0.7-1.3-1.1c-0.9-0.7-1.7-1.5-2.4-2.3c-3.1-3.2-5.7-6.7-8-10.4c-2.3-3.7-4.4-7.5-5.9-11.8
	c-0.4-1.1-0.7-2.2-0.9-3.5c0-0.3-0.1-0.7-0.1-1.1c0-0.2,0-0.4,0-0.6c0-0.1,0-0.3,0.1-0.5c0.1-0.4,0.2-0.8,0.4-1.3
	c0.2-0.5,0.7-1.1,1.6-1.5c0.9-0.3,1.6-0.2,2.1,0s0.9,0.4,1.2,0.6c0.6,0.4,1.1,0.8,1.5,1.3c0.9,0.8,1.6,1.7,2.2,2.6
	c2.6,3.5,4.8,7.2,6.7,10.9c1.9,3.7,3.6,7.5,4.9,11.4c0.7,2,1.2,3.9,1.6,6c0.2,1,0.3,2.1,0.2,3.3c-0.1,1.1-0.2,2.4-1.2,3.8
	c-0.3,0.3-0.6,0.6-0.9,0.8l-0.3,0.2l-0.2,0.1h-0.1c-0.1,0.1-0.2,0.1-0.4,0.2c-0.6,0.3-1.2,0.4-1.8,0.5c-1.2,0.2-2.3,0.1-3.4-0.1
	c-2.1-0.4-4-1.2-5.7-2.2c-3.4-2-6.2-4.5-8.4-7.3c-1.1-1.4-2.1-3-2.7-4.8c-0.1-0.5-0.2-1-0.2-1.6c0-0.3,0-0.6,0.1-0.9
	c0.1-0.4,0.1-0.4,0.2-0.7c0.2-0.5,0.4-1,0.7-1.4c0.3-0.5,0.9-0.9,1.5-1.1c0.6-0.2,1.3-0.2,1.8,0c0.5,0.1,1,0.3,1.4,0.6
	c0.8,0.5,1.5,1,2.1,1.6c1.2,1.1,2.1,2.4,3,3.6c1.7,2.5,3,5,3.9,7.5c1,2.5,1.6,4.9,1.8,7.2c0.2,2.2,0.1,4.6-1.1,6.3
	c-0.6,0.8-1.5,1.4-2.3,1.6c-0.9,0.2-1.7,0.2-2.4,0.2c-1.5-0.1-2.7-0.4-3.7-0.6s-1.7-0.3-2.2-0.4c-0.5,0-0.8,0-0.8,0s0.3-0.1,0.8-0.1
	s1.3,0.1,2.3,0.2c1,0.1,2.2,0.3,3.6,0.3c0.7,0,1.5-0.1,2.2-0.3c0.7-0.3,1.4-0.7,1.9-1.4c0.5-0.7,0.7-1.6,0.8-2.6c0-0.5,0-1,0-1.5
	c0-0.3,0-0.5-0.1-0.8c0-0.2-0.1-0.5-0.1-0.8c-0.3-2.2-1-4.4-2.1-6.8c-1-2.3-2.4-4.7-4.1-6.9c-0.9-1.1-1.8-2.2-2.9-3.2
	c-0.5-0.5-1.1-0.9-1.7-1.2c-0.6-0.3-1.1-0.4-1.3-0.3c-0.1,0-0.2,0.1-0.3,0.3c-0.1,0.2-0.2,0.5-0.3,0.7c0,0.1-0.1,0.4-0.1,0.5
	c0,0.1,0,0.2,0,0.3c0,0.3,0.1,0.6,0.2,0.9c0.4,1.3,1.4,2.6,2.4,3.9c2.1,2.5,4.8,4.7,7.8,6.4c1.5,0.8,3.1,1.4,4.7,1.7
	c0.8,0.1,1.6,0.1,2.3,0c0.3-0.1,0.7-0.2,1-0.3c0.5-0.2,0.4-0.2,0.5-0.3c0.2-0.2,0.4-0.9,0.4-1.7c0-0.8-0.1-1.7-0.2-2.6
	c-0.3-1.8-0.9-3.6-1.5-5.4c-1.3-3.6-3-7.3-4.9-10.8c-1.9-3.5-4-7.1-6.4-10.3c-0.6-0.8-1.2-1.5-1.9-2.2c-0.3-0.3-0.7-0.6-0.9-0.8
	c-0.1-0.1-0.2-0.1-0.2-0.1s0.2,0.1,0.6-0.1c0.4-0.2,0.5-0.4,0.5-0.4s0,0.1-0.1,0.2c0,0,0,0.2,0,0.3v0.1c0,0.1,0,0.3,0,0.5
	c0.1,0.8,0.4,1.8,0.7,2.7c0.7,1.9,1.5,3.7,2.5,5.6c0.9,1.8,2,3.6,3.1,5.4c2.2,3.5,4.7,6.9,7.5,9.8c0.7,0.7,1.4,1.4,2.2,2.1
	c0.4,0.3,0.7,0.6,1.1,0.9l0.6,0.5l0.2,0.1l0.1,0.1l0,0c0.1,0,0.2,0.1,0.2,0.2c0.3,0.2,0.6,0.3,0.8,0.3s0.4,0,0.5,0
	c0.3-0.1,0.8-0.6,1.2-1.3c0.8-1.4,1.2-3.4,1.5-5.3c0.2-1.9,0.2-3.9,0.1-5.9c-0.3-3.9-1.1-7.8-2.3-11.5c-0.3-0.9-0.6-1.8-1-2.7
	c-0.3-0.9-0.7-1.7-1.2-2.5c-0.9-1.7-1.8-3.3-3-4.6c-0.5-0.6-1.2-1.3-1.6-1.5c-0.1-0.1-0.2-0.1-0.1-0.1c0,0,0.2,0,0.2-0.1
	c0.1-0.1-0.1,0.1-0.2,0.4c-0.4,1.2,0.1,3,0.6,4.6c1.1,3.3,2.8,6.4,4.6,9.3c1.8,2.9,3.7,5.5,5.9,7.6c0.5,0.5,1.1,1,1.7,1.4
	c0.6,0.4,1.2,0.7,1.6,0.7c0.2,0,0.3,0,0.4-0.1c0.2-0.1,0.4-0.4,0.5-0.6c0.3-0.5,0.6-1.2,0.7-1.8c0.7-2.6,0.6-5.4,0.5-8
	c-0.4-5.1-1.4-9.5-2.5-13.1c-1.1-3.6-2.2-6.3-3-8.1C-159.1,373.4-159.6,372.4-159.6,372.4z"/>
<circle cx="-163.4" cy="565.2" r="3"/>
<circle cx="-121.9" cy="552.6" r="2.5"/>
<circle cx="-182.9" cy="569.5" r="4.3"/>
<circle cx="-149.1" cy="544" r="4.3"/>
<circle cx="-136.6" cy="595.8" r="4.3"/>
<circle cx="-126.2" cy="400.8" r="2.5"/>
<circle cx="-73.4" cy="490.5" r="2.5"/>
<circle cx="-75.9" cy="436" r="4.3"/>
<circle cx="-97.6" cy="456.3" r="4.3"/>
<circle cx="-73.4" cy="507.8" r="4.3"/>
</svg>
