<?xml version="1.0" encoding="utf-8"?>
<!-- Generator: Adobe Illustrator 19.1.0, SVG Export Plug-In . SVG Version: 6.00 Build 0)  -->
<svg version="1.1" id="Layer_1" xmlns="http://www.w3.org/2000/svg" xmlns:xlink="http://www.w3.org/1999/xlink" x="0px" y="0px"
	 viewBox="-323 125.2 311.8 311.8" style="enable-background:new -323 125.2 311.8 311.8;" xml:space="preserve">
<style type="text/css">
	.st0{opacity:0.52;enable-background:new    ;}
	.st1{fill:#FFFFFF;}
</style>
<circle class="st0" cx="-166.1" cy="281.1" r="155.9"/>
<g id="maps">
	<path class="st1" d="M-123.6,257.3h-13.1c7.1-15,12.7-29.5,12.7-38.1c0-23.2-18.4-41.9-41.1-41.9s-41.1,18.8-41.1,41.9
		c0,8.5,5.5,23.1,12.5,38.1h-14.9l-50.1,76.1l0,0l0,0l-18.6,28.3h222.4L-123.6,257.3z M-165.5,201.4c9.6,0,17.4,8,17.4,17.8
		s-7.8,17.8-17.4,17.8c-9.6,0-17.4-8-17.4-17.8S-175.1,201.4-165.5,201.4z M-66.6,356.3h-48.8l-42.9-23.3l51-38.4L-66.6,356.3z
		 M-204.2,262.8h13.1c11.6,23.9,25.6,47.2,25.6,47.2s14.3-23.3,26.1-47.2h11.3l18.1,27.6l-53.1,40l-63-34.3L-204.2,262.8z
		 M-228.8,300.3l34.2,18.6l-54.6,12.4L-228.8,300.3z M-265.7,356.3l12.5-19l65.3-14.8l62.1,33.8H-265.7z"/>
</g>
</svg>
