<?xml version="1.0" encoding="utf-8"?>
<!-- Generator: Adobe Illustrator 19.1.0, SVG Export Plug-In . SVG Version: 6.00 Build 0)  -->
<svg version="1.1" id="Layer_1" xmlns="http://www.w3.org/2000/svg" xmlns:xlink="http://www.w3.org/1999/xlink" x="0px" y="0px"
	 viewBox="-323 125.2 311.8 311.8" style="enable-background:new -323 125.2 311.8 311.8;" xml:space="preserve">
<style type="text/css">
	.st0{opacity:0.6;}
</style>
<g id="music" class="st0">
	<path d="M-167.1,125.2c-86.1,0-155.9,69.8-155.9,155.9S-253.2,437-167.1,437s155.9-69.8,155.9-155.9S-81,125.2-167.1,125.2z
		 M-167.1,427.9c-81,0-146.7-65.7-146.7-146.7s65.7-146.7,146.7-146.7s146.7,65.7,146.7,146.7C-20.3,362.2-86,427.9-167.1,427.9z"/>
	<path d="M-175.7,314c-0.3-0.8-0.9-1.6-1.5-2.2v-71.3l0,0v-11.7l-68.5,16.3V257l0,0v68.5c-3.8-0.7-8.6-0.2-13.4,1.7
		c-9.2,3.6-14.9,10.8-12.8,16.1s11.2,6.7,20.4,3.1c9.2-3.6,14.9-10.8,12.8-16.1c-0.4-1-1.1-1.9-2-2.6v-71.8l58.4-14v67.7
		c-3.8-0.8-8.8-0.3-13.8,1.6c-9.2,3.6-14.9,10.8-12.8,16.1s11.2,6.7,20.4,3.1C-179.4,326.5-173.7,319.3-175.7,314z"/>
	<path d="M-113,187.9c-4.4-3.5-10.7-2.4-14.5-1.2c-0.2-0.1-0.5-0.1-0.8-0.1c-0.9,0-1.7,0.5-2.1,1.2c-0.2,0.1-0.4,0.2-0.4,0.2
		s0.1,0,0.2,0.1c-0.2,0.3-0.2,0.7-0.2,1.1V266c-3.8-0.8-8.8-0.3-13.8,1.6c-9.2,3.6-14.9,10.8-12.8,16.1c2.1,5.3,11.2,6.7,20.4,3.1
		c9.2-3.6,14.9-10.8,12.8-16.1c-0.3-0.8-0.9-1.6-1.5-2.2v-78.1c3.2,1.9,7.1,4.7,8.6,8c2.9,6.3,2.9,6.3,3.1,12.8s-4.4,30-3.1,25
		s13.4-22.3,13.6-28S-106.2,193.1-113,187.9z"/>
	<path d="M-76.8,308c1.3-5,13.4-22.3,13.6-28c0.2-5.7-2.8-15-9.5-20.3c-4.4-3.5-10.7-2.4-14.5-1.2c-0.2-0.1-0.5-0.1-0.8-0.1
		c-0.9,0-1.7,0.5-2.1,1.2c-0.2,0.1-0.4,0.2-0.4,0.2s0.1,0,0.2,0.1c-0.2,0.3-0.2,0.7-0.2,1.1v76.8c-3.8-0.8-8.8-0.3-13.8,1.6
		c-5.4,2.1-9.6,5.5-11.8,9h-14.7v2.9h13.4c-0.4,1.5-0.3,2.9,0.2,4.2c2.1,5.3,11.2,6.7,20.4,3.1c4.5-1.8,8.2-4.4,10.5-7.3h14.1v-2.9
		h-12.2c1-2.1,1.2-4.2,0.5-6c-0.3-0.8-0.9-1.6-1.5-2.2v-78c3.2,1.9,7.1,4.7,8.6,8c2.9,6.3,2.9,6.3,3.1,12.8S-78,313-76.8,308z"/>
</g>
</svg>
