<?xml version="1.0" encoding="utf-8"?>
<!-- Generator: Adobe Illustrator 19.1.0, SVG Export Plug-In . SVG Version: 6.00 Build 0)  -->
<svg version="1.1" id="Layer_1" xmlns="http://www.w3.org/2000/svg" xmlns:xlink="http://www.w3.org/1999/xlink" x="0px" y="0px"
	 viewBox="-323 125.2 311.8 311.8" style="enable-background:new -323 125.2 311.8 311.8;" xml:space="preserve">
<style type="text/css">
	.st0{opacity:0.6;}
</style>
<g id="nightlife" class="st0">
	<path d="M-167.1,125.2c-86.1,0-155.9,69.8-155.9,155.9S-253.2,437-167.1,437s155.9-69.8,155.9-155.9S-81,125.2-167.1,125.2z
		 M-167.1,427.9c-81,0-146.7-65.7-146.7-146.7s65.7-146.7,146.7-146.7s146.7,65.7,146.7,146.7C-20.3,362.2-86,427.9-167.1,427.9z"/>
	<path d="M-155,240.6c0.9-1.2,1.4-2.7,1.4-4.3c0-4.1-3.4-7.5-7.5-7.5h-3.9v-72.4h-4.2v72.4h-3.9c-4.1,0-7.5,3.4-7.5,7.5
		c0,1.6,0.5,3.1,1.4,4.3c-31.8,5.7-56,33.5-56,67c0,37.6,30.5,68.1,68.1,68.1S-99,345.2-99,307.6C-99,274.2-123.1,246.4-155,240.6z
		 M-201.2,342.9h-12.3v-15h12.3V342.9z M-122.3,276.7h6.9v12.1h-6.9V276.7z M-153.1,250.6h14.5v10.6h-14.5V250.6z M-168.3,301.5
		h11.6v9.2h-11.6V301.5z M-174.3,318.3h35.7v19.3h-35.7V318.3z M-150.2,313.4v-8.7h11.6v8.7H-150.2z M-159.4,366.6h-17.9v-11.1h17.9
		V366.6z M-131.3,355.5H-153v-9.2h21.7V355.5z M-131.3,288.8H-153v-15.9h21.7V288.8z M-117.6,337.6h-9.4v-13h9.4V337.6z
		 M-123.6,315.4V299h12.1v16.4H-123.6z"/>
	<path d="M-250,273.6c-0.1-0.3-0.3-0.6-0.6-0.9v-29l0,0V238l-27.9,6.6v5.8l0,0v27.8c-1.5-0.3-3.5-0.1-5.4,0.7
		c-3.7,1.5-6.1,4.4-5.2,6.5c0.8,2.2,4.6,2.7,8.3,1.2c3.7-1.5,6.1-4.4,5.2-6.5c-0.2-0.4-0.4-0.8-0.8-1.1v-29.2l23.7-5.7v27.5
		c-1.6-0.3-3.6-0.1-5.6,0.7c-3.7,1.5-6.1,4.4-5.2,6.5c0.8,2.2,4.6,2.7,8.3,1.2C-251.5,278.6-249.2,275.7-250,273.6z"/>
	<path d="M-213.2,181.2c-1.8-1.4-4.4-1-5.9-0.5c-0.1,0-0.2-0.1-0.3-0.1c-0.4,0-0.7,0.2-0.9,0.5c-0.1,0-0.2,0.1-0.2,0.1s0,0,0.1,0
		c-0.1,0.1-0.1,0.3-0.1,0.4v31.2c-1.6-0.3-3.6-0.1-5.6,0.7c-3.7,1.5-6.1,4.4-5.2,6.5c0.8,2.2,4.6,2.7,8.3,1.2
		c3.7-1.5,6.1-4.4,5.2-6.5c-0.1-0.3-0.3-0.6-0.6-0.9v-31.5c1.3,0.8,2.9,1.9,3.5,3.3c1.2,2.5,1.2,2.5,1.3,5.2
		c0.1,2.7-1.8,12.2-1.3,10.2s5.4-9,5.5-11.4C-209.2,187.2-210.4,183.4-213.2,181.2z"/>
	<path d="M-86.4,360.7c0.5-2,5.4-9,5.5-11.4c0.1-2.3-1.1-6.1-3.9-8.2c-1.8-1.4-4.4-1-5.9-0.5c-0.1,0-0.2-0.1-0.3-0.1
		c-0.4,0-0.7,0.2-0.9,0.5c-0.1,0-0.2,0.1-0.2,0.1s0,0,0.1,0c-0.1,0.1-0.1,0.3-0.1,0.4v31.2c-1.6-0.3-3.6-0.1-5.6,0.7
		c-2.2,0.9-3.9,2.2-4.8,3.7h-6v1.2h5.5c-0.2,0.6-0.1,1.2,0.1,1.7c0.8,2.2,4.6,2.7,8.3,1.2c1.8-0.7,3.3-1.8,4.3-2.9h5.7v-1.2h-5
		c0.4-0.8,0.5-1.7,0.2-2.4c-0.1-0.3-0.3-0.6-0.6-0.9v-31.7c1.3,0.8,2.9,1.9,3.5,3.3c1.2,2.5,1.2,2.5,1.3,5.2
		C-85.1,353.1-87,362.7-86.4,360.7z"/>
	<g>
		<polygon points="-49.1,217.1 -114.6,259.3 -51.9,212.9 		"/>
	</g>
	<g>
		<polygon points="-38.8,286.5 -98.1,277.4 -38.3,281.5 		"/>
	</g>
	<g>
		<polygon points="-300,324.2 -239.8,311.1 -298.7,329 		"/>
	</g>
	<g>
		<polygon points="-263.7,373.8 -231.4,350.9 -260.5,377.7 		"/>
	</g>
	<g>
		<polygon points="-210.8,412.5 -197.9,380 -206,414 		"/>
	</g>
	<g>
		<polygon points="-90,171.8 -123.6,239.8 -94.6,169.8 		"/>
	</g>
</g>
</svg>
