<?xml version="1.0" encoding="utf-8"?>
<!-- Generator: Adobe Illustrator 19.1.0, SVG Export Plug-In . SVG Version: 6.00 Build 0)  -->
<svg version="1.1" id="Layer_1" xmlns="http://www.w3.org/2000/svg" xmlns:xlink="http://www.w3.org/1999/xlink" x="0px" y="0px"
	 viewBox="-323 125.2 311.8 311.8" style="enable-background:new -323 125.2 311.8 311.8;" xml:space="preserve">
<style type="text/css">
	.st0{opacity:0.6;}
</style>
<g id="outdoors" class="st0">
	<path d="M-167.1,125.2c-86.1,0-155.9,69.8-155.9,155.9S-253.2,437-167.1,437s155.9-69.8,155.9-155.9S-81,125.2-167.1,125.2z
		 M-167.1,427.9c-81,0-146.7-65.7-146.7-146.7s65.7-146.7,146.7-146.7s146.7,65.7,146.7,146.7C-20.3,362.2-86,427.9-167.1,427.9z"/>
	<path d="M-249.1,381.2c0,0,0.1-0.2,0.2-0.7l0.1-0.1v-0.1c0,0,0-0.1,0.1-0.1c0.1-0.2,0.2-0.5,0.3-0.8c0.4-1.3,1-3.6,1.8-7.1
		c0.8-3.4,1.8-8,3.3-13.5c1.6-5.5,3.6-12.1,7.5-19.7c1.9-3.8,4.4-7.8,7.7-12c3.3-4.1,7.6-8.4,12.9-12.2c1.3-0.9,2.7-1.8,4.2-2.7
		c0.7-0.4,1.5-0.8,2.2-1.2l1.1-0.6l0.1-0.1c0,0,0.9-0.5,0.6-0.3l0.2-0.1l0.4-0.1l1.4-0.5c0.7-0.3,1.5-0.6,2.2-0.9l1.2-0.5
		c0.4-0.2,0.7-0.3,1-0.4c0.7-0.2,1.3-0.5,2-0.7c5.3-1.8,10.4-3,15.1-3.9c2.4-0.5,4.6-0.9,6.8-1.2c2-0.3,4-0.7,6.1-1
		c3.8-0.7,7.1-1.3,9.7-2c2.6-0.7,4.7-1.5,6.6-2.8c1-0.7,1.9-1.5,2.8-2.5c0.5-0.5,0.8-1.1,1.3-1.6v-0.1c0,0-0.1,0.2,0,0.1l0.1-0.2
		l0.1-0.3c0.1-0.1,0.1-0.2,0.1-0.2l0.1-0.1c0.1-0.2,0.2-0.4,0.3-0.6c0.3-0.9,0.4-1.5,0.4-1.9c0-0.5,0-0.9-0.4-1.6
		c-0.7-1.3-3.2-3.1-6.4-4.6s-7.1-2.9-11-4.2c-4-1.3-8.2-2.6-12.5-4c-4.3-1.5-8.6-3-13-5.5c-2.2-1.3-4.4-2.9-6.3-5.1
		c-0.9-1.1-1.7-2.4-2.2-3.8c-0.5-1.4-0.7-2.8-0.7-4.1c0.1-2.6,1-4.8,2-6.6l0.2-0.3l0.1-0.2v-0.1l0.1-0.1l0.3-0.5
		c0.2-0.3,0.5-0.7,0.7-1c0.4-0.7,1-1.5,1.5-2.2c2.1-2.9,4.4-5.4,6.8-7.8c4.9-4.7,10.4-8.2,15.6-10.5c5.3-2.3,10.2-3.5,14.2-4.3
		c4-0.7,7.2-1,9.4-1.3c2.2-0.3,3.3-0.5,3.3-0.5s-1.1,0.4-3.1,1c-2.1,0.6-5.1,1.4-8.8,2.7c-3.7,1.3-7.9,3.2-12.1,6
		c-4.1,2.8-8.1,6.5-11.2,11.1c-1.6,2.3-3,4.8-4.1,7.4c-0.3,0.7-0.6,1.2-0.8,2c-0.1,0.4-0.8,2.6-0.7,3.2c0.2,0.6,1.6,2.8,2.2,3.2
		c0.6,0.4,2.2,1.4,3.5,2c2.7,1.1,4.4,1.2,8.3,2c4,0.8,8.3,1.5,12.8,2.3c4.5,0.9,9.3,1.8,14.3,3.4c2.5,0.8,5.1,1.8,7.8,3.1
		c2.7,1.3,5.4,3,7.9,5.3s4.6,5.3,5.8,8.4c1.2,3.2,1.5,6.4,1.3,9.3c-0.1,0.7-0.1,1.4-0.2,2.2l-0.4,2c-0.2,1.3-0.3,2.5-0.7,3.8
		c-0.6,2.6-1.6,5.2-2.9,7.8c-2.7,5.2-7.2,9.9-11.9,13.6c-4.7,3.6-9.6,6.4-13.9,8.7c-2.1,1.1-4.1,2.2-6.2,3.2c-1.9,1-3.7,2-5.3,2.9
		c-0.8,0.5-1.7,1.2-2.6,2c-3.3,2.9-5.7,6.4-7.3,10.2c-0.8,1.9-1.5,3.8-1.5,4.5c0,3.3,0.3,7.1,0.8,10.7c0.5,3.6,1.1,7.1,1.7,10.3
		c0.5,3.1,1,6,1.2,8.2c0,0.6,0.1,1.1,0.1,1.5c0,0.1,0,0.2,0,0.3c0,0.1,0,0.3,0,0.4c0,0.2,0,0.5,0,0.7c0,0.5,0.1,0.7,0.1,0.7
		L-249.1,381.2z"/>
	<path d="M-198.2,275.7l-24.4-27h10.7c1.8,0,2.7-2.4,1.4-3.9l-20.7-23.1h8c1.2,0,1.8-1.6,0.9-2.5l-20.3-22.6c-0.5-0.6-1.3-0.6-1.9,0
		l-20.3,22.6c-0.8,0.9-0.2,2.5,0.9,2.5h8l-20.8,23.1c-1.3,1.4-0.4,3.9,1.4,3.9h10.7l-24.3,27c-1.8,2-0.5,5.3,2,5.3h36.8v16.7h14.4
		V281h35.5C-197.7,280.9-196.4,277.6-198.2,275.7z"/>
	<path d="M-45.4,341.9l-23.3-27h10.2c1.7,0,2.6-2.4,1.4-3.9L-77,287.9h7.7c1.1,0,1.7-1.6,0.9-2.5l-19.5-22.6c-0.5-0.6-1.3-0.6-1.8,0
		l-19.3,22.6c-0.8,0.9-0.2,2.5,0.9,2.5h7.7l-19.8,23.1c-1.2,1.4-0.4,3.9,1.4,3.9h10.2l-23.2,27c-1.7,2-0.5,5.3,1.9,5.3h35.1v16.7
		h13.7v-16.7h33.9C-44.9,347.2-43.7,343.8-45.4,341.9z"/>
	<path d="M-77.7,226l-17.5-18.8h7.7c1.3,0,2-1.7,1-2.7l-14.9-16.1h5.8c0.8,0,1.3-1.1,0.7-1.7l-14.6-15.8c-0.4-0.4-1-0.4-1.3,0
		l-14.6,15.8c-0.6,0.6-0.2,1.7,0.7,1.7h5.8l-14.9,16.1c-0.9,1-0.3,2.7,1,2.7h7.7l-17.5,18.8c-1.3,1.4-0.4,3.7,1.4,3.7h26.2v11.6
		h10.3v-11.6h25.5C-77.4,229.7-76.5,227.4-77.7,226z"/>
</g>
</svg>
