<?xml version="1.0" encoding="utf-8"?>
<!-- Generator: Adobe Illustrator 19.1.0, SVG Export Plug-In . SVG Version: 6.00 Build 0)  -->
<svg version="1.1" id="marker_location" xmlns="http://www.w3.org/2000/svg" xmlns:xlink="http://www.w3.org/1999/xlink" x="0px"
	 y="0px" viewBox="-149 241.2 311.8 311.8" style="enable-background:new -149 241.2 311.8 311.8;" xml:space="preserve">
<style type="text/css">
	.st0{fill:#2CB036;stroke:#FFFFFF;stroke-width:2;stroke-miterlimit:10;}
	.st1{fill:#FFFFFF;}
</style>
<circle class="st0" cx="12" cy="397.1" r="56.7"/>
<path class="st1" d="M27.2,374.6c-8.8,1.1-11.4,2.4-20.4,2.4c-3.3,0-8.1-1.4-11-2.3v-1.9c1.2-0.9,2-2.3,2-3.9c0-2.6-2.1-4.7-4.7-4.7
	s-4.7,2.1-4.7,4.7c0,1.6,0.8,3,2,3.9v58.7c0,1.5,1.2,2.7,2.7,2.7s2.7-1.2,2.7-2.7v-23.8c2.1,0.6,5.3,1.3,8.1,1.3
	c9.6,0,13.9-3.4,23.9-4.1c4.8-0.3,11.9,3.4,11.9,3.4v-33.1C39.7,375.1,32.4,373.9,27.2,374.6z"/>
</svg>
