<?xml version="1.0" encoding="utf-8"?>
<!-- Generator: Adobe Illustrator 19.1.0, SVG Export Plug-In . SVG Version: 6.00 Build 0)  -->
<svg version="1.1" id="Layer_1" xmlns="http://www.w3.org/2000/svg" xmlns:xlink="http://www.w3.org/1999/xlink" x="0px" y="0px"
	 viewBox="-323 125.2 311.8 311.8" style="enable-background:new -323 125.2 311.8 311.8;" xml:space="preserve">
<style type="text/css">
	.st0{opacity:0.6;}
</style>
<g id="religion" class="st0">
	<path d="M-167.1,125.2c-86.1,0-155.9,69.8-155.9,155.9S-253.2,437-167.1,437s155.9-69.8,155.9-155.9S-81,125.2-167.1,125.2z
		 M-167.1,427.9c-81,0-146.7-65.7-146.7-146.7s65.7-146.7,146.7-146.7s146.7,65.7,146.7,146.7C-20.3,362.2-86,427.9-167.1,427.9z"/>
	<path d="M-185.1,276.2l-16,28.9c-0.2,0.4-0.6,0.9-0.9,1.3c-0.6,0.8-1.1,1.7-1.4,2.7l-9.9,31.7c-1.3,4-4.2,7.3-8.1,8.9l-21.2,8.8
		c-3.6,1.5-6.2,4.7-7.1,8.5l0,0c-2.1,9.7,7.7,17.6,16.7,13.4l13.9-6.5c1.1-0.5,3.2-1.2,4.4-1.2c0.1,0,2.6-0.3,0.4,0l14.1-2l2.3-0.2
		c2.3-1.1,4.7-1.2,6.4-2.4l9.2-5.3c0.5-0.3,4.8-5.1,5.1-5.5l-0.8,1.6c0,0,0.1-0.1,0.1-0.2l4.4-7.1c0.1-0.2,0.3-0.5,0.4-0.7
		c1.2-2.4,3-5.8,2.8-11.6c-0.1-4,0.3-8,0.3-8.5c0.5-6.7,5.9-20,0.6-20.5c-5-0.5-6.7,7.8-7.6,9.6c-0.2,0.4-2.1,6.4-2.7,7.7
		c-0.1,0.2-0.1,0.4-0.2,0.6c0,0-4.2,9.7-4.2,8.8l-0.6-5.2c-0.1-1.3-0.2-2.6-0.2-3.9l0,0c0-0.4,0-0.8,0-1.2l-1-11.5
		c-0.2-2.1,1.1-6.8,2.4-9.2l0,0c0.5-0.9,0.8-1.9,1-3l1.4-10c0.2-1.6,0.7-3.1,1.3-4.6c1.4-3.4,2.3-8.2,2.3-8.4
		c0.4-7.5,5.5-10.6,0.1-16.3c-3.4-3.5-5.8,5.2-6.5,8.9C-184.1,273.9-184.5,275.1-185.1,276.2z"/>
	<path d="M-149.1,276.2l16,28.9c0.2,0.4,0.6,0.9,0.9,1.3c0.6,0.8,1.1,1.7,1.4,2.7l9.9,31.7c1.3,4,4.2,7.3,8.1,8.9l21.2,8.8
		c3.6,1.5,6.2,4.7,7.1,8.5l0,0c2.1,9.7-7.7,17.6-16.7,13.4l-13.9-6.5c-1.1-0.5-3.2-1.2-4.4-1.2c-0.1,0-2.6-0.3-0.4,0l-14.1-2
		l-2.3-0.2c-2.3-1.1-4.7-1.2-6.4-2.4l-9.2-5.3c-0.5-0.3-4.8-5.1-5.1-5.5l0.8,1.6c0,0-0.1-0.1-0.1-0.2l-4.4-7.1
		c-0.1-0.2-0.3-0.5-0.4-0.7c-1.2-2.4-3-5.8-2.8-11.6c0.1-4-0.3-8-0.3-8.5c-0.5-6.7-5.9-20-0.6-20.5c5-0.5,6.7,7.8,7.6,9.6
		c0.2,0.4,2.1,6.4,2.7,7.7c0.1,0.2,0.1,0.4,0.2,0.6c0,0,4.2,9.7,4.2,8.8l0.6-5.2c0.1-1.3,0.2-2.6,0.2-3.9l0,0c0-0.4,0-0.8,0-1.2
		l1-11.5c0.2-2.1-1.1-6.8-2.4-9.2l0,0c-0.5-0.9-0.8-1.9-1-3l-1.4-10c-0.2-1.6-0.7-3.1-1.3-4.6c-1.4-3.4-2.3-8.2-2.3-8.4
		c-0.4-7.5-5.5-10.6-0.1-16.3c3.4-3.5,5.8,5.2,6.5,8.9C-150.1,273.9-149.7,275.1-149.1,276.2z"/>
	<g>
		<path d="M-187.9,193.6c0,0-3.1,3-7.9,7.4c-2.4,2.2-5.1,4.8-8.1,7.5s-6.2,5.6-9.4,8.5c-1.6,1.5-3.2,2.9-4.7,4.4s-3.1,2.9-4.6,4.2
			c-1.5,1.3-3.1,2.5-4.5,3.7c-0.7,0.6-1.5,1.1-2.2,1.6s-1.4,1-2.1,1.5c-1.3,1-2.6,1.8-3.6,2.5c-1.1,0.7-2.1,1.4-2.9,1.9
			c-1.6,1-2.6,1.5-2.6,1.5l-0.3-0.3c0,0,0.7-0.9,1.9-2.3c0.6-0.7,1.4-1.6,2.3-2.5c0.9-1,1.9-2,3.1-3.2c0.6-0.6,1.2-1.2,1.8-1.8
			s1.3-1.2,2-1.9c1.3-1.3,2.8-2.6,4.4-3.9c1.6-1.3,3.2-2.6,4.9-3.9s3.4-2.6,5.1-4c3.4-2.7,6.8-5.4,10-7.9c3.2-2.5,6.2-4.8,8.7-6.8
			c5.1-4,8.6-6.6,8.6-6.6L-187.9,193.6z"/>
	</g>
	<g>
		<path d="M-174,202.7c0,0-0.9,3-2.3,7.5c-0.7,2.3-1.5,4.9-2.4,7.7s-1.9,5.8-2.8,8.8c-0.5,1.5-1,3-1.4,4.5s-0.9,2.9-1.4,4.3
			c-1,2.8-2.2,5.3-3.3,7.4c-0.5,1.1-1.1,2-1.5,2.9c-0.5,0.8-0.9,1.6-1.3,2.2c-0.7,1.2-1.2,1.8-1.2,1.8l-0.4-0.1c0,0,0.1-0.8,0.3-2.2
			c0.1-0.7,0.3-1.5,0.4-2.5c0.2-0.9,0.4-2,0.7-3.2c0.6-2.3,1.3-4.9,2.4-7.7c0.5-1.4,1.1-2.8,1.8-4.2c0.6-1.4,1.3-2.9,1.9-4.3
			c1.2-2.9,2.4-5.8,3.6-8.5c1.2-2.7,2.3-5.2,3.3-7.4c1.9-4.3,3.2-7.2,3.2-7.2L-174,202.7z"/>
	</g>
	<g>
		<path d="M-164.5,199.7c0,0,1.3,3,3.2,7.4c0.9,2.2,2.1,4.8,3.2,7.6c1.2,2.8,2.4,5.8,3.6,8.8c0.6,1.5,1.2,3,1.9,4.4
			c0.6,1.5,1.2,2.9,1.8,4.3c1,2.9,1.8,5.6,2.3,8c0.3,1.2,0.5,2.3,0.7,3.3s0.3,1.8,0.4,2.6c0.2,1.4,0.3,2.3,0.3,2.3l-0.4,0.1
			c0,0-0.5-0.7-1.2-1.9c-0.4-0.6-0.8-1.4-1.3-2.2c-0.5-0.9-1-1.9-1.5-3c-1.1-2.2-2.2-4.8-3.2-7.6c-0.5-1.4-0.9-2.9-1.4-4.5
			c-0.4-1.5-0.9-3.1-1.4-4.6c-1-3.1-1.9-6.2-2.8-9.1c-0.9-2.9-1.7-5.6-2.3-7.9c-1.4-4.7-2.2-7.8-2.2-7.8L-164.5,199.7z"/>
	</g>
	<g>
		<path d="M-147.2,192.8c0,0,3.1,3,7.6,7.5c2.3,2.2,4.9,4.9,7.7,7.7c2.8,2.8,5.8,5.9,8.8,8.9c1.5,1.5,3,3,4.5,4.5s3,2.9,4.3,4.4
			c1.4,1.5,2.6,2.9,3.8,4.3c0.6,0.7,1.2,1.4,1.7,2.1s1.1,1.3,1.6,2c1,1.3,1.9,2.4,2.6,3.5c0.8,1.1,1.4,2,2,2.8
			c1.1,1.6,1.6,2.5,1.6,2.5l-0.3,0.3c0,0-0.9-0.6-2.4-1.8c-0.7-0.6-1.6-1.3-2.6-2.2s-2.1-1.8-3.3-2.9c-0.6-0.5-1.2-1.1-1.8-1.7
			c-0.6-0.6-1.3-1.2-1.9-1.9c-1.3-1.3-2.7-2.7-4-4.1c-1.3-1.5-2.7-3-4-4.7c-1.4-1.6-2.7-3.2-4.1-4.8c-2.8-3.2-5.6-6.5-8.2-9.5
			c-2.6-3-5-5.9-7.1-8.3c-4.1-4.9-6.9-8.2-6.9-8.2L-147.2,192.8z"/>
	</g>
	<g>
		<path d="M-129.3,180.5c0,0,4.5,2.2,11.2,5.5c3.3,1.7,7.3,3.6,11.4,5.7c4.2,2.1,8.6,4.4,13,6.6c2.2,1.1,4.5,2.2,6.7,3.3
			s4.4,2.2,6.4,3.3c2,1.1,4,2.2,5.8,3.4c0.9,0.6,1.8,1.1,2.7,1.6s1.7,1.1,2.5,1.6c1.6,1,3,2,4.3,2.8c1.3,0.9,2.3,1.6,3.2,2.3
			c1.8,1.3,2.8,2.1,2.8,2.1l-0.2,0.4c0,0-1.2-0.4-3.3-1.2c-1-0.4-2.3-0.9-3.7-1.5c-1.4-0.6-3-1.3-4.7-2.1c-0.8-0.4-1.7-0.8-2.6-1.2
			c-0.9-0.4-1.8-0.9-2.8-1.4c-1.9-0.9-3.9-2-6-3.1c-2-1.1-4.1-2.4-6.2-3.6c-2.1-1.3-4.2-2.5-6.4-3.8c-4.3-2.5-8.6-5-12.6-7.4
			c-4-2.4-7.8-4.6-11-6.5c-6.4-3.8-10.7-6.4-10.7-6.4L-129.3,180.5z"/>
	</g>
	<g>
		<path d="M-204.5,181.8c0,0-4.3,2.5-10.7,6.1c-3.2,1.8-7,4-11,6.2c-4,2.3-8.4,4.7-12.7,7.1c-2.1,1.2-4.3,2.4-6.4,3.6
			c-2.1,1.2-4.2,2.4-6.2,3.5c-2.1,1.1-4.1,2.1-6,2.9c-1,0.4-1.9,0.9-2.8,1.3c-0.9,0.4-1.8,0.8-2.7,1.2c-1.7,0.7-3.3,1.4-4.7,1.9
			c-1.4,0.6-2.6,1-3.7,1.4c-2,0.7-3.3,1.1-3.3,1.1l-0.2-0.4c0,0,1-0.8,2.8-2c0.9-0.6,2-1.4,3.3-2.2c1.3-0.8,2.7-1.7,4.3-2.7
			c0.8-0.5,1.6-1,2.5-1.5s1.8-1,2.7-1.5c1.8-1.1,3.8-2.1,5.9-3.2c2.1-1,4.2-2.1,6.4-3.1c2.2-1,4.4-2.1,6.7-3.1
			c4.5-2.1,8.9-4.3,13.1-6.3s8.1-3.8,11.4-5.4c6.7-3.2,11.2-5.2,11.2-5.2L-204.5,181.8z"/>
	</g>
</g>
</svg>
