<?xml version="1.0" encoding="utf-8"?>
<!-- Generator: Adobe Illustrator 19.1.0, SVG Export Plug-In . SVG Version: 6.00 Build 0)  -->
<svg version="1.1" id="Layer_1" xmlns="http://www.w3.org/2000/svg" xmlns:xlink="http://www.w3.org/1999/xlink" x="0px" y="0px"
	 viewBox="-323 125.2 311.8 311.8" style="enable-background:new -323 125.2 311.8 311.8;" xml:space="preserve">
<style type="text/css">
	.st0{opacity:0.6;}
</style>
<g id="Layer_15" class="st0">
	<path d="M-167.1,125.2c-86.1,0-155.9,69.8-155.9,155.9S-253.2,437-167.1,437s155.9-69.8,155.9-155.9S-81,125.2-167.1,125.2z
		 M-167.1,427.9c-81,0-146.7-65.7-146.7-146.7s65.7-146.7,146.7-146.7s146.7,65.7,146.7,146.7C-20.3,362.2-86,427.9-167.1,427.9z"/>
	<path d="M-167.1,206.7c-41.1,0-74.4,33.3-74.4,74.4s33.3,74.4,74.4,74.4s74.4-33.3,74.4-74.4C-92.7,240-126,206.7-167.1,206.7z
		 M-167.1,349.1c-37.6,0-68-30.5-68-68c0-37.6,30.5-68,68-68c37.6,0,68,30.5,68,68C-99.1,318.7-129.5,349.1-167.1,349.1z"/>
	<path d="M-166.5,228c-29.3,0-53.1,23.8-53.1,53.1c0,29.3,23.8,53.1,53.1,53.1s53.1-23.8,53.1-53.1
		C-113.3,251.8-137.1,228-166.5,228z M-166.5,329.3c-26.6,0-48.2-21.6-48.2-48.2c0-26.6,21.6-48.2,48.2-48.2s48.2,21.6,48.2,48.2
		C-118.3,307.7-139.8,329.3-166.5,329.3z"/>
	<polygon points="-122.9,346.6 -208.1,292.1 -159.2,215.6 	"/>
	<path d="M-72,210.2L-72,210.2c-7.7,0-14,8.1-14,18v49.4h9.4c3.3,0,5.9,3.5,5.9,7.7v66.6H-58V210.2C-58,210.2-64.3,210.2-72,210.2z"
		/>
	<path d="M-249.9,212.1v43.7c0,1.5-1.3,2.8-2.8,2.8s-2.8-1.3-2.8-2.8v-44.2h-5.2v44.2c0,1.5-1.3,2.8-2.8,2.8l0,0
		c-1.5,0-2.8-1.3-2.8-2.8v-44.2h-5v44.2c0,1.5-1.3,2.8-2.8,2.8s-2.8-1.3-2.8-2.8v-43.2c-0.6-2.4-5.3-3.5-5.3,3.2v41.5
		c0,5.2,1.3,9.4,6.5,9.4c2.9,0,5.3,2.7,5.8,6.2c0.1,0.4,0.1,0.8,0.1,1.2v2V352h12.4v-75.9v-2c0-0.4,0-0.8,0.1-1.2
		c0.5-3.5,2.9-6.2,5.8-6.2c5.2,0,6.5-4.2,6.5-9.4v-41.5C-244.9,208.7-248.5,209.5-249.9,212.1z"/>
</g>
</svg>
