<?xml version="1.0" encoding="utf-8"?>
<!-- Generator: Adobe Illustrator 19.1.0, SVG Export Plug-In . SVG Version: 6.00 Build 0)  -->
<svg version="1.1" id="Layer_1" xmlns="http://www.w3.org/2000/svg" xmlns:xlink="http://www.w3.org/1999/xlink" x="0px" y="0px"
	 viewBox="-323 125.2 311.8 311.8" style="enable-background:new -323 125.2 311.8 311.8;" xml:space="preserve">
<style type="text/css">
	.st0{opacity:0.6;}
</style>
<g id="safety" class="st0">
	<path d="M-167.1,125.2c-86.1,0-155.9,69.8-155.9,155.9S-253.2,437-167.1,437s155.9-69.8,155.9-155.9S-81,125.2-167.1,125.2z
		 M-167.1,427.9c-81,0-146.7-65.7-146.7-146.7s65.7-146.7,146.7-146.7s146.7,65.7,146.7,146.7C-20.3,362.2-86,427.9-167.1,427.9z"/>
	<g>
		<path d="M-186.7,299.2"/>
	</g>
	<g>
		<path d="M-233.4,225.8"/>
	</g>
	<g>
		<path d="M-152.4,292"/>
	</g>
	<g>
		<path d="M-103.2,244.6"/>
	</g>
	<g>
		<path d="M-168.2,293.7"/>
	</g>
	<g>
		<path d="M-141.8,216.1"/>
	</g>
	<path d="M-67.7,223.7l-48.1-21.9c-6.4-2.9-12.4-6.5-18-10.7l-33.3-24.8l0,0l0,0l0,0l-33.3,24.8c-5.6,4.2-11.7,7.8-18,10.7
		l-48.1,21.9l0,0l4.9,54.3c3.2,35.2,21.8,67.1,50.7,87.4l43.7,30.5l0,0l0,0l0,0l43.7-30.5c29-20.2,47.5-52.2,50.7-87.4L-67.7,223.7
		L-67.7,223.7z M-167.1,339.2c-4.5,0-8.2-3.7-8.2-8.2s3.7-8.2,8.2-8.2s8.2,3.7,8.2,8.2S-162.6,339.2-167.1,339.2z M-152.4,270.9
		c-3.3,16.6-7.6,31.7-10.7,41.7c-1.2,4-6.9,4-8.2,0c-3.2-10-7.5-25.1-10.5-41.7c-4.9-26.9,6.6-47.8,14.7-47.8
		S-147.3,244.9-152.4,270.9z"/>
</g>
</svg>
