<?xml version="1.0" encoding="utf-8"?>
<!-- Generator: Adobe Illustrator 19.1.0, SVG Export Plug-In . SVG Version: 6.00 Build 0)  -->
<svg version="1.1" id="Layer_1" xmlns="http://www.w3.org/2000/svg" xmlns:xlink="http://www.w3.org/1999/xlink" x="0px" y="0px"
	 viewBox="-323 125.2 311.8 311.8" style="enable-background:new -323 125.2 311.8 311.8;" xml:space="preserve">
<style type="text/css">
	.st0{opacity:0.6;}
</style>
<g id="public_offices" class="st0">
	<path d="M-167.1,125.2c-86.1,0-155.9,69.8-155.9,155.9S-253.2,437-167.1,437s155.9-69.8,155.9-155.9S-81,125.2-167.1,125.2z
		 M-167.1,427.9c-81,0-146.7-65.7-146.7-146.7s65.7-146.7,146.7-146.7s146.7,65.7,146.7,146.7C-20.3,362.2-86,427.9-167.1,427.9z"/>
	<path d="M-85.3,272.9h-58.8v-12.5c0-10.1-7.7-18.5-17.5-19.8c6.2-2.2,9.9-6.2,10.7-12.9c0.4-3.8,0.6-6.4-1.7-9.2l7.7-10.2
		l-15.2-7.9l-14-0.1l-14.9,7.9l7.7,10c-2.5,2.8-2.5,5.5-2,9.4c1,7.5,4.4,10.7,10.7,12.9c-9.8,1.2-17.5,9.6-17.5,19.8v12.5h-58.8
		c-1.8,0-3.2,1.5-3.2,3.2v7.7c0,1.8,1.5,3.2,3.2,3.2h14.3c0,0.2,0,0.4,0,0.5v66.1c0,3.4,2.8,6.3,6.3,6.3h122.6
		c3.4,0,6.3-2.8,6.3-6.3v-66.1c0-0.2,0-0.4,0-0.5h14.3c1.8,0,3.2-1.5,3.2-3.2V276C-82.1,274.3-83.5,272.9-85.3,272.9z M-131.5,325.2
		c0,2.7-2.2,5-5,5h-61.2c-2.7,0-5-2.2-5-5v-10c0-2.7,2.2-5,5-5h61.2c2.7,0,5,2.2,5,5V325.2z"/>
</g>
</svg>
