<?xml version="1.0" encoding="utf-8"?>
<!-- Generator: Adobe Illustrator 19.1.0, SVG Export Plug-In . SVG Version: 6.00 Build 0)  -->
<svg version="1.1" id="Layer_1" xmlns="http://www.w3.org/2000/svg" xmlns:xlink="http://www.w3.org/1999/xlink" x="0px" y="0px"
	 viewBox="-323 125.2 311.8 311.8" style="enable-background:new -323 125.2 311.8 311.8;" xml:space="preserve">
<style type="text/css">
	.st0{opacity:0.6;}
</style>
<g id="shopping" class="st0">
	<path d="M-87.6,328.4H-58l-11.8-101.8h-18.5v-13.5c0-4.9-4-8.9-8.8-8.9s-8.8,4-8.8,8.9v13.5h-21.3l-4.2,36.6h19.1l12.5,60.9h-4.8
		l-11.7-56.9h-20v-3.7c0-17.7-11.4-32.1-25.3-32.1l0,0c-13.9,0-25.3,14.5-25.3,32.1v3.7h-20l-10,48.7h-4.1l11.5-52.1h8.6l-4-28.2
		h-13v6.8c0,16.5-7.4,30-16.5,30l0,0c-9.1,0-16.5-13.5-16.5-30v-5h3.9v2.8c0,11.5,5.2,20.9,11.5,20.9h2.1c6.3,0,11.5-9.4,11.5-20.9
		v-4.6h-18.6l0,0h-15l0,0h-8.6l-12.1,84.7h45.8h8.4h4.1l-7.7,37.6h128.1l-6.1-29.5h4.8H-87.6L-87.6,328.4z M-142.4,267.2H-181v-1.4
		c0-12.3,8-22.4,17.7-22.4h3.2c9.7,0,17.7,10.1,17.7,22.4L-142.4,267.2L-142.4,267.2z M-101.8,212.9c0-2.7,2.2-4.8,4.8-4.8
		s4.8,2.2,4.8,4.8v13.7h-9.6V212.9z"/>
	<path d="M-167.1,125.2c-86.1,0-155.9,69.8-155.9,155.9S-253.2,437-167.1,437s155.9-69.8,155.9-155.9S-81,125.2-167.1,125.2z
		 M-167.1,427.9c-81,0-146.7-65.7-146.7-146.7s65.7-146.7,146.7-146.7s146.7,65.7,146.7,146.7C-20.3,362.2-86,427.9-167.1,427.9z"/>
</g>
</svg>
