<?xml version="1.0" encoding="utf-8"?>
<!-- Generator: Adobe Illustrator 19.1.0, SVG Export Plug-In . SVG Version: 6.00 Build 0)  -->
<svg version="1.1" id="Layer_1" xmlns="http://www.w3.org/2000/svg" xmlns:xlink="http://www.w3.org/1999/xlink" x="0px" y="0px"
	 viewBox="-323 125.2 311.8 311.8" style="enable-background:new -323 125.2 311.8 311.8;" xml:space="preserve">
<style type="text/css">
	.st0{opacity:0.6;}
</style>
<g id="sport" class="st0">
	<path d="M-167.1,125.2c-86.1,0-155.9,69.8-155.9,155.9S-253.2,437-167.1,437s155.9-69.8,155.9-155.9S-81,125.2-167.1,125.2z
		 M-167.1,427.9c-81,0-146.7-65.7-146.7-146.7s65.7-146.7,146.7-146.7s146.7,65.7,146.7,146.7C-20.3,362.2-86,427.9-167.1,427.9z"/>
	<path d="M-91.1,220.5c-2.4-2.6-6.6-2.8-9.2-0.3l-20.3,18.8l-31.1-16.9c-0.6-0.3-1.3-0.6-2-0.7c0.4,0,0.8,0.1,1.2,0.1
		c9,0,16.3-7.3,16.3-16.3s-7.3-16.3-16.3-16.3s-16.3,7.3-16.3,16.3c0,5.6,2.8,10.5,7,13.4c-5-0.5-10,1.5-13.1,5.6
		c-0.2,0-0.5,0.1-0.7,0.1l-39.9,9.4h-0.1c-3.2,0.4-5.7,3.1-5.7,6.4v29.7c0,3.6,2.9,6.5,6.5,6.5s6.5-2.9,6.5-6.5v-24.9l25.4-6
		l-19.5,37.7c-0.9,1.7-1.4,3.5-1.5,5.3c-0.8,0.7-1.5,1.5-2.1,2.5l-37.2,68.5c-2.2,4-0.7,9.1,3.3,11.3c4,2.2,9.1,0.7,11.3-3.3
		l34.7-63.8c2.2,0.7,4.5,0.9,6.7,0.5c0.5,0,1,0,1.6,0l26.5-3.2l-15.9,29.2c-2.2,4.1-0.7,9.3,3.4,11.6l0,0c4.1,2.2,9.3,0.7,11.6-3.4
		l21.6-39.6c2.1-3.8,0.9-8.5-2.5-11c-1.5-2.2-4.2-3.6-7.1-3.2l-23.8,2.9l21.3-41.2c0.2-0.4,0.3-0.7,0.5-1.1l26.9,14.7
		c3.3,1.8,7.3,0.6,9.1-2.6l22.4-20.8C-88.8,227.2-88.7,223.1-91.1,220.5z"/>
	<circle cx="-86.7" cy="334.6" r="18.5"/>
</g>
</svg>
