<?xml version="1.0" encoding="utf-8"?>
<!-- Generator: Adobe Illustrator 19.1.0, SVG Export Plug-In . SVG Version: 6.00 Build 0)  -->
<svg version="1.1" id="Layer_1" xmlns="http://www.w3.org/2000/svg" xmlns:xlink="http://www.w3.org/1999/xlink" x="0px" y="0px"
	 viewBox="-323 125.2 311.8 311.8" style="enable-background:new -323 125.2 311.8 311.8;" xml:space="preserve">
<style type="text/css">
	.st0{opacity:0.6;}
</style>
<g id="student_lunch" class="st0">
	<path d="M-167.1,125.2c-86.1,0-155.9,69.8-155.9,155.9S-253.2,437-167.1,437s155.9-69.8,155.9-155.9S-81,125.2-167.1,125.2z
		 M-167.1,427.9c-81,0-146.7-65.7-146.7-146.7s65.7-146.7,146.7-146.7s146.7,65.7,146.7,146.7C-20.3,362.2-86,427.9-167.1,427.9z"/>
	<path d="M-107.6,219.5l0.1-0.3h-8.1h-60.9h-6.6c-4.4,0-8.1,3.6-8.1,8.1c0,4.4,3.6,8.1,8.1,8.1h1.9l-26.3,89.7l69,18l32-15.3
		l26.6,4.4L-107.6,219.5z M-182.5,232.9c-3.1,0-5.7-2.6-5.7-5.7s2.6-5.7,5.7-5.7h5.4h56.9c0.2,0,0.4,0,0.6,0.1
		c-1.6,1.2-2.6,3.4-2.6,5.8c0,2.2,0.9,4.2,2.2,5.5c-0.1,0-0.1,0-0.2,0h-57h-3.2C-180.4,232.9-182.5,232.9-182.5,232.9z
		 M-140.5,339.3l-61.7-16.9l24.3-87.1h62.2L-140.5,339.3z"/>
	<path d="M-204.1,282.7c0.7-0.3,1.3-0.6,1.9-1c7.7-4.9,9.6-15.8,9.6-15.8s-10.6-2.9-18.4,2c-5.9,3.7-8.4,10.8-9.2,14.1l-3-12
		c-0.1-0.6-0.8-0.5-1.4,0.2s-1,1.8-0.9,2.4l2.6,10.7c-3.1-0.9-6.2-1.4-9.2-1.4c-15.3,0-25.9,12.9-21.3,28.3
		c5.5,18.4,12.4,29.1,27.6,29.1c1.5,0,3-0.1,4.4-0.4c1.4,0.2,2.9,0.4,4.4,0.4c15.3,0,23.3-13.5,27.6-29.1
		C-185.5,297-192.5,285.7-204.1,282.7z"/>
</g>
</svg>
