<?xml version="1.0" encoding="utf-8"?>
<!-- Generator: Adobe Illustrator 19.1.0, SVG Export Plug-In . SVG Version: 6.00 Build 0)  -->
<svg version="1.1" id="Layer_1" xmlns="http://www.w3.org/2000/svg" xmlns:xlink="http://www.w3.org/1999/xlink" x="0px" y="0px"
	 viewBox="-343 345.2 311.8 311.8" style="enable-background:new -343 345.2 311.8 311.8;" xml:space="preserve">
<style type="text/css">
	.st0{fill:#FFFFFF;}
	.st1{opacity:0.6;enable-background:new    ;}
</style>
<circle class="st0" cx="-187.1" cy="501.1" r="155.9"/>
<path class="st1" d="M-87,562.2v-2.6h-136.3v-2.3h84.3V555c-4.5-1.1-7.8-5.5-7.8-10.8v-13.1c0-5.3,3.4-9.7,7.8-10.8v-3.5h-11.6v-2.3
	h60.2v-2.1c-4.9-1-8.6-5.1-8.6-10v-12.2c0-4.9,3.7-9,8.6-10V477h-64.8c9-3.8,17-17.7,18.7-21.1c12.6-24.5,2.5-37.3-10.3-42.3
	c-4.5-1.8-12.6-3.3-21.3,3.2c-2.6,1.9-2.6-0.2-2.2-3.4c0.5-4.7,1.9-10.2,0.7-10.1c-3.5,0.2-3.7-1.6-4.5-1.9
	c-1.4-0.5,0.5,10.2-0.8,15c-0.5,1.8-3.4,2.6-6.4,0.4c-4-2.8-10.1-4-17.7-1.2c-14.2,5.3-17.1,38.1,1.4,52.6c2.1,1.7,7.2,7.1,12.4,8.7
	h-54.1c-10.4,0-18.8,8.5-18.8,18.8l0,0c0,10.4,8.5,18.8,18.8,18.8h86.1v2.3h-121.5c-9.4,0-17.2,9.1-17.2,20.2l0,0
	c0,11.1,7.7,20.2,17.2,20.2h48.7v2.3h-29.8c-11.7,0-15.4,6.8-15.4,15.2l0,0c0,8.3,3.7,15.2,15.4,15.2H-87v-1.7
	c-5.6-0.8-9.7-4.1-9.7-8.1v-9.8C-96.7,566.3-92.6,563-87,562.2z M-140.3,426.2c0.2,1.9-2.1,8.5-3.9,10.1c-1.7,1.6-7.5,4.3-5.4-0.6
	s-1.1-10.2-1.1-10.2C-148.6,419.3-140.5,424.3-140.3,426.2z M-163.7,476.9h-15.2C-173.4,475.8-167,475.5-163.7,476.9z M-284.5,536.8
	L-284.5,536.8c0-9.2,6.9-16.8,15.2-16.8H-142c0,0-6.9,3.5-6.9,7.9v18.9c0,4.4,3.9,6.9,3.9,6.9h-124.2
	C-277.6,553.6-284.5,546-284.5,536.8z"/>
</svg>
