<?xml version="1.0" encoding="utf-8"?>
<!-- Generator: Adobe Illustrator 19.1.0, SVG Export Plug-In . SVG Version: 6.00 Build 0)  -->
<svg version="1.1" id="Layer_1" xmlns="http://www.w3.org/2000/svg" xmlns:xlink="http://www.w3.org/1999/xlink" x="0px" y="0px"
	 viewBox="-323 125.2 311.8 311.8" style="enable-background:new -323 125.2 311.8 311.8;" xml:space="preserve">
<style type="text/css">
	.st0{opacity:0.52;enable-background:new    ;}
	.st1{fill:#FFFFFF;}
</style>
<circle class="st0" cx="-167.1" cy="281.1" r="155.9"/>
<path class="st1" d="M-64,348.2v-2.6h-136.3v-2.3h27.4h2.2h23.1h31.6h0.3V341c-4.5-1.1-7.8-5.5-7.8-10.8v-13.1
	c0-5.3,3.4-9.7,7.8-10.8v-3.5h-0.3h-11.6v-2.3h60.2v-2.1c-4.9-1-8.6-5.1-8.6-10v-12.2c0-4.9,3.7-9,8.6-10v-3.2h-64.8
	c9-3.8,17-17.7,18.7-21.1c12.6-24.5,2.5-37.3-10.3-42.3c-4.5-1.8-12.6-3.3-21.3,3.2c-2.6,1.9-2.6-0.2-2.2-3.4
	c0.5-4.7,1.9-10.2,0.7-10.1c-3.5,0.2-3.7-1.6-4.5-1.9c-1.4-0.5,0.5,10.2-0.8,15c-0.5,1.8-3.4,2.6-6.4,0.4c-4-2.8-10.1-4-17.7-1.2
	c-14.2,5.3-17.1,38.1,1.4,52.6c2.1,1.7,7.2,7.1,12.4,8.7h-54.1c-10.4,0-18.8,8.5-18.8,18.8v0c0,10.4,8.5,18.8,18.8,18.8h86.1v2.3
	h-1.2h-43.7h-7.9h-13.9h-5.5h-49.4h0c-9.4,0-17.2,9.1-17.2,20.2v0c0,11.1,7.7,20.2,17.2,20.2h0h48.7v2.3h-29.8
	c-11.7,0-15.4,6.8-15.4,15.2v0c0,8.3,3.7,15.2,15.4,15.2H-64v-1.7c-5.6-0.8-9.7-4.1-9.7-8.1v-9.8C-73.7,352.3-69.6,349-64,348.2z
	 M-117.3,212.2c0.2,1.9-2.1,8.5-3.9,10.1c-1.7,1.6-7.5,4.3-5.4-0.6c2.1-4.9-1.1-10.2-1.1-10.2C-125.6,205.3-117.5,210.3-117.3,212.2
	z M-140.7,262.9h-15.2C-150.4,261.8-144,261.5-140.7,262.9z M-132.9,297.1h-2.2h-78.8c-9.5,0-17.2-6.8-17.2-15.2v0
	c0-8.4,7.8-15.2,17.2-15.2h49.6h5.5h13.9h7.9h43.8h17.5l-2,2.6c-1,2.8-1.9,4.1-1.9,8.1v9.8c0,4-0.2,1.8,1.9,8.1l2,1.7h-34H-132.9z
	 M-77.5,357.1v7.8c0,0,0,2.3,1.1,4.5l2.9,3.3h-155.3c-10.8,0-14.2-5.4-14.2-12.1v0c0-6.6,3.4-12.1,14.2-12.1h27.5h2.2h90.4h35.2
	l-2.2,2.4C-77.6,354.5-77.5,357.1-77.5,357.1z"/>
</svg>
