<?xml version="1.0" encoding="utf-8"?>
<!-- Generator: Adobe Illustrator 19.1.0, SVG Export Plug-In . SVG Version: 6.00 Build 0)  -->
<svg version="1.1" id="Layer_1" xmlns="http://www.w3.org/2000/svg" xmlns:xlink="http://www.w3.org/1999/xlink" x="0px" y="0px"
	 viewBox="-323 125.2 311.8 311.8" style="enable-background:new -323 125.2 311.8 311.8;" xml:space="preserve">
<style type="text/css">
	.st0{opacity:0.6;}
</style>
<g id="transport" class="st0">
	<path d="M-167.1,125.2c-86.1,0-155.9,69.8-155.9,155.9S-253.2,437-167.1,437s155.9-69.8,155.9-155.9S-81,125.2-167.1,125.2z
		 M-167.1,427.9c-81,0-146.7-65.7-146.7-146.7s65.7-146.7,146.7-146.7s146.7,65.7,146.7,146.7C-20.3,362.2-86,427.9-167.1,427.9z"/>
	<g>
		<path d="M-87.7,248.8h-1.9c-1.9,0-3.5,1-4.6,2.5v-29.5c0-14.8-11.5-26.8-25.5-26.8h-63.2c-14,0-25.5,12.1-25.5,26.8V250
			c-0.9-0.7-2.1-1.1-3.3-1.1h-1.9c-3.1,0-5.7,2.7-5.7,6v18.8c0,3.3,2.6,6,5.7,6h1.9c1.2,0,2.3-0.4,3.3-1.1v38.6
			c0,8.8,4.1,16.6,10.4,21.5c-0.5,0.9-0.9,2-0.9,3.2V359c0,3.3,2.6,6,5.7,6h7.7c3.1,0,5.7-2.7,5.7-6v-14.9h57.1V359
			c0,3.3,2.6,6,5.7,6h7.7c3.1,0,5.7-2.7,5.7-6v-17.1c0-1.2-0.3-2.2-0.9-3.2c6.3-4.9,10.4-12.7,10.4-21.5V277c1,1.5,2.7,2.5,4.6,2.5
			h1.9c3.1,0,5.7-2.7,5.7-6v-18.8C-82,251.5-84.6,248.8-87.7,248.8z M-172,202.6h41.3c2.9,0,5.3,2.5,5.3,5.5s-2.4,5.5-5.3,5.5H-172
			c-2.9,0-5.3-2.5-5.3-5.5S-174.9,202.6-172,202.6z M-177.3,335.5c-6.7,0-12.2-5.7-12.2-12.8s5.4-12.8,12.2-12.8s12.2,5.7,12.2,12.8
			S-170.5,335.5-177.3,335.5z M-125.4,335.5c-6.7,0-12.2-5.7-12.2-12.8s5.4-12.8,12.2-12.8s12.2,5.7,12.2,12.8
			C-113.3,329.8-118.7,335.5-125.4,335.5z M-99.9,286.5c0,6.3-4.9,11.5-10.9,11.5h-17.8H-174h-17.8c-6,0-10.9-5.2-10.9-11.5v-53.3
			c0-6.3,4.9-11.5,10.9-11.5h17.8h45.4h17.8c6,0,10.9,5.2,10.9,11.5L-99.9,286.5L-99.9,286.5z"/>
		<path d="M-213.6,298.7l-24.8-18.6c-0.5-0.4-1.1-0.6-1.6-0.7c-0.8-0.6-1.7-0.9-2.8-0.9h-6.2c3.6-1.3,6.2-4.8,6.2-8.9
			c0-5.2-4.2-9.5-9.4-9.5s-9.4,4.2-9.4,9.5c0,4.1,2.6,7.6,6.2,8.9h-9.3c-2.4,0-4.3,1.8-4.7,4.2c-0.1,0.2-0.2,0.4-0.2,0.6l-9.4,32.4
			c-0.7,2.4,0.6,4.9,2.9,5.6c2.3,0.7,4.7-0.6,5.4-3l8.6-29.9h0.1c-0.1,0.5-0.1,1-0.1,1.5v28.6c0,0.7,0.1,1.5,0.2,2.2
			c0,0.2-0.1,0.5-0.1,0.7v48.8c0,2.5,1.9,4.5,4.3,4.5l0,0c2.4,0,4.3-2,4.3-4.5v-40.5c0.7,0.2,1.5,0.2,2.2,0.2l0,0
			c1.2,0,2.4-0.2,3.6-0.6l6.6,41.3c0.4,2.4,2.6,4.1,5,3.7c2.3-0.4,3.9-2.7,3.5-5.2l-7.8-48.9c0.1-0.6,0.1-1.1,0.1-1.7v-28.6v-0.1
			l21.6,16.1c1.9,1.4,4.6,1,6-1.1C-211.2,302.9-211.7,300.1-213.6,298.7z"/>
	</g>
</g>
</svg>
