<svg xmlns="http://www.w3.org/2000/svg" viewBox="124.8 326.921 60.819 27.247">
  <defs>
    <style>
      .cls-1 {
        fill: #9a0052;
      }

      .cls-2 {
        fill: #00c8b3;
      }

      .cls-3 {
        fill: #4cc330;
      }
    </style>
  </defs>
  <g id="Group_381" data-name="Group 381" transform="translate(24.6 225.442)">
    <g id="g26" transform="translate(100.2 105.263)">
      <path id="path28" class="cls-1" d="M-24.312-39.789h2.7V-54.875h-2.7v6.262h-7.2v-6.262h-2.7v15.086h2.7v-6.64h7.2Zm14.379-2.094v-5.282c0-2.9-1.407-4.122-4.668-4.122a15.425,15.425,0,0,0-3.87.535v1.827a16.279,16.279,0,0,1,3.378-.423c1.853,0,2.58.646,2.58,2.162v.624h-2.463c-3.073,0-4.738,1.248-4.738,3.677,0,2.139,1.384,3.365,3.8,3.365a4.76,4.76,0,0,0,3.636-1.4h.024a1.8,1.8,0,0,0,1.994,1.4,4.772,4.772,0,0,0,1.571-.29v-1.471a4.039,4.039,0,0,1-.493.045c-.469,0-.75-.2-.75-.646m-7.2-1.226c0-1.337.892-1.961,2.7-1.961h1.924v2.808a3.855,3.855,0,0,1-2.557.869c-1.431,0-2.064-.624-2.064-1.716m20.876,3.32-4.926-6.819,4.293-4.457H.247L-4.092-46.5v-9.493h-2.58v16.2h2.58V-43.8L-2.849-45,.857-39.789Zm10.6-2.094v-5.282c0-2.9-1.407-4.122-4.668-4.122a15.43,15.43,0,0,0-3.87.535v1.827a16.285,16.285,0,0,1,3.378-.423c1.853,0,2.58.646,2.58,2.162v.624H9.3c-3.073,0-4.738,1.248-4.738,3.677,0,2.139,1.384,3.365,3.8,3.365A4.76,4.76,0,0,0,12-40.925h.023a1.8,1.8,0,0,0,1.994,1.4,4.773,4.773,0,0,0,1.572-.29v-1.471a4.046,4.046,0,0,1-.493.045c-.469,0-.75-.2-.75-.646m-7.2-1.226c0-1.337.891-1.961,2.7-1.961h1.924v2.808a3.856,3.856,0,0,1-2.557.869c-1.431,0-2.064-.624-2.064-1.716" transform="translate(34.211 55.989)"/>
    </g>
    <g id="g30" transform="translate(136.918 108.276)">
      <path id="path32" class="cls-2" d="M-7.45-37.869h-3.034A13.533,13.533,0,0,0,.056-32.837,13.561,13.561,0,0,0,13.617-46.4a13.5,13.5,0,0,0-1.882-6.89A4.391,4.391,0,0,1,10.1-51.735,11.317,11.317,0,0,1,11.429-46.4,11.374,11.374,0,0,1,.056-35.025,11.317,11.317,0,0,1-7.45-37.869" transform="translate(10.484 53.288)"/>
    </g>
    <g id="g34" transform="translate(135.98 101.605)">
      <path id="path36" class="cls-2" d="M-40.857-2.5a13.516,13.516,0,0,0-5.158-1.018A13.547,13.547,0,0,0-57.492,2.823H-54.8a11.35,11.35,0,0,1,8.788-4.155,11.334,11.334,0,0,1,3.857.685,4.382,4.382,0,0,1,1.3-1.854" transform="translate(57.492 3.519)"/>
    </g>
    <g id="g38" transform="translate(150.919 101.479)">
      <path id="path40" class="cls-3" d="M-11.053-22.106a4.5,4.5,0,0,0,4.5-4.5,4.5,4.5,0,0,0-4.5-4.5,4.5,4.5,0,0,0-4.5,4.5,4.5,4.5,0,0,0,4.5,4.5" transform="translate(15.553 31.107)"/>
    </g>
  </g>
</svg>
